/* XPM */
static char * base_24c0_xpm[] = {
"56 49 13 1",
" 	c #000000000000",
".	c #FFFFBEFB79E7",
"X	c #BEFBBEFBBEFB",
"o	c #BEFB6DB64103",
"O	c #BEFB7DF74103",
"+	c #B6DAB2CAB6DA",
"@	c #EFBEEFBEEFBE",
"#	c #DF7DDB6CDF7D",
"$	c #FFFFFFFFFFFF",
"%	c #9E799E799E79",
"&	c #8E388E388E38",
"*	c #CF3CCF3CCF3C",
"=	c #CF3CCB2BCF3C",
" ....................................................XX ",
".ooooooooooooooooooooooooooooooooooooooooooooooooooooOO+",
"OOOOOOOOOOOOOOOOOOOOOOOOOOOOOOOOOOOOOOOOOOOOOOOOOOOOOOO+",
"o@####################################################O+",
"$@####################################################%+",
"$@#####################################################+",
"$@#####################################################+",
"$@#####################################################+",
"$$$$$$$$$$$$$$$$$$$$$$$$$$$$$$$$$$$$$$$$$$$$$$$$$$$$$$#&",
"$$***************************************************++&",
"$*====================================================+&",
"$*====================================================+&",
"$*====================================================+&",
"$*====================================================+&",
"$*====================================================+&",
"$*====================================================+&",
"$*====================================================+&",
"$*====================================================+&",
"$*====================================================+&",
"$*====================================================+&",
"$*====================================================+&",
"$*====================================================+&",
"$*====================================================+&",
"$*====================================================+&",
"$*====================================================+&",
"$*====================================================+&",
"$*====================================================+&",
"$*====================================================+&",
"$*====================================================+&",
"$*====================================================+&",
"$*====================================================+&",
"$*====================================================+&",
"$*====================================================+&",
"$*====================================================+&",
"$*====================================================+&",
"$*====================================================+&",
"$*====================================================+&",
"$*====================================================+&",
"$*====================================================+&",
"$*====================================================+&",
"$*====================================================+&",
"$*====================================================+&",
"$*====================================================+&",
"$*====================================================+&",
"$*====================================================+&",
"$*====================================================+&",
"$*====================================================+&",
"$&++++++++++++++++++++++++++++++++++++++++++++++++++++&&",
" &&&&&&&&&&&&&&&&&&&&&&&&&&&&&&&&&&&&&&&&&&&&&&&&&&&&&& "};
