/* XPM */
static char * base_24o0c_xpm[] = {
"56 9 13 1",
" 	c #000000000000",
".	c #FFFFFFFFFFFF",
"X	c #DF7DDB6CDF7D",
"o	c #B6DAB2CAB6DA",
"O	c #CF3CCF3CCF3C",
"+	c #8E388E388E38",
"@	c #DF7DDF7DDF7D",
"#	c #CF3CCB2BCF3C",
"$	c #9E799E799E79",
"%	c #BEFBBEFBBEFB",
"&	c #BEFB7DF74103",
"*	c #BEFB6DB64103",
"=	c #BEFB4D344103",
"......................................................o+",
".@####################################################$o",
".@####################################################$o",
".@####################################################$o",
".@####################################################$o",
"%@####################################################&o",
"&&&&&&&&&&&&&&&&&&&&&&&&&&&&&&&&&&&&&&&&&&&&&&&&&&&&&&&*",
"=****************************************************&&*",
" ====================================================== "};
