/* XPM */
static char * rev_24o0c_xpm[] = {
"56 9 9 1",
" 	c #000041030000",
".	c #CF3CCF3CCF3C",
"X	c #9E799E799E79",
"o	c #E79DE38DE79D",
"O	c #FFFF9A696185",
"+	c #BEFB6DB630C2",
"@	c #FFFFBAEA8617",
"#	c #BEFB7DF74103",
"$	c #410382074103",
"o@@@@@@@@@@@@@@@@@@@@@@@@@@@@@@@@@@@@@@@@@@@@@@@@@@@@@+ ",
"oOOOOOOOOOOOOOOOOOOOOOOOOOOOOOOOOOOOOOOOOOOOOOOOOOOOOO+ ",
"oOOOOOOOOOOOOOOOOOOOOOOOOOOOOOOOOOOOOOOOOOOOOOOOOOOOOO# ",
"o.....................................................# ",
"o.....................................................# ",
"o.....................................................X ",
"o.....................................................X ",
"o.....................................................X ",
"$.....................................................X$"};
