/* XPM */
static char * rev_24o3c_xpm[] = {
"41 9 6 1",
" 	c #BEFB71C64924",
".	c #CF3CCF3CCF3C",
"X	c #9E799E799E79",
"o	c #FFFF9A696185",
"O	c #DF7D86175144",
"+	c #FFFFBAEA8617",
".++++++++++++++++++++++++++++++++++++++O ",
".+oooooooooooooooooooooooooooooooooooooO ",
".oooooooooooooooooooooooooooooooooooooo  ",
".......................................X ",
".......................................X ",
".......................................X ",
".......................................X ",
".......................................X ",
" ......................................X "};
