/* XPM */
static char * base_24do0c_xpm[] = {
"56 9 12 1",
" 	c #CF3CCF3CCF3C",
".	c #AEBAAEBAAEBA",
"X	c #965892489658",
"o	c #69A66DB669A6",
"O	c #AEBAAAAAAEBA",
"+	c #DF7DDF7DDF7D",
"@	c #9E799E799E79",
"#	c #BEFB6DB64103",
"$	c #BEFB7DF74103",
"%	c #BEFB4D344103",
"&	c #000065950000",
"*	c #000000000000",
"                                                      Xo",
" +OOOOOOOOOOOOOOOOOOOOOOOOOOOOOOOOOOOOOOOOOOOOOOOOOOOO@X",
" +OOOOOOOOOOOOOOOOOOOOOOOOOOOOOOOOOOOOOOOOOOOOOOOOOOOO@X",
" +OOOOOOOOOOOOOOOOOOOOOOOOOOOOOOOOOOOOOOOOOOOOOOOOOOOO@X",
" +OOOOOOOOOOOOOOOOOOOOOOOOOOOOOOOOOOOOOOOOOOOOOOOOOOOO@X",
"#+OOOOOOOOOOOOOOOOOOOOOOOOOOOOOOOOOOOOOOOOOOOOOOOOOOOO$X",
"$$$$$$$$$$$$$$$$$$$$$$$$$$$$$$$$$$$$$$$$$$$$$$$$$$$$$$$X",
"%####################################################$$X",
"&&%%%%%%%%%%%%%%%%%%%%%%%%%%%%%%%%%%%%%%%%%%%%%%%%%%%%*&"};
