/* XPM */
static char * rev_24do0c_xpm[] = {
"56 9 8 1",
" 	c #000030C20000",
".	c #9E799A699E79",
"X	c #71C675D671C6",
"o	c #BEFBBEFBBEFB",
"O	c #BEFB6DB671C6",
"+	c #8E385D7530C2",
"@	c #BEFB6DB64103",
"#	c #410382074103",
"o.....................................................+ ",
"oOOOOOOOOOOOOOOOOOOOOOOOOOOOOOOOOOOOOOOOOOOOOOOOOOOOOO+ ",
"oOOOOOOOOOOOOOOOOOOOOOOOOOOOOOOOOOOOOOOOOOOOOOOOOOOOOO+ ",
"o.....................................................+ ",
"o.....................................................+ ",
"o.....................................................X ",
"o.....................................................X ",
"o.....................................................X ",
"#.....................................................X#"};
