/* XPM */
static char * rev_24c2c_xpm[] = {
"19 54 10 1",
" 	c #000041030000",
".	c #CF3CCF3CCF3C",
"X	c #9E799E799E79",
"o	c #4F4F4F4F4F4F",
"O	c #FFFF9A696185",
"+	c #BEFB6DB630C2",
"@	c #FFFFBAEA8617",
"#	c #BEFB7DF74103",
"$	c #410382074103",
"a	c #E3E39A696185",
"X.............aaaa#",
"X.............aaaa#",
"X.............aaaa#",
"X.............aaaa#",
"X.............aaaa#",
"X.............aaaa#",
"X.............aaaa#",
"X.............aaaa#",
"X.............aaaa#",
"X.............aaaa#",
"X.............aaaa#",
"X.............aaaa#",
"X.............aaaa#",
"X.............aaaa#",
"X.............aaaa#",
"X.............aaaa#",
"X..............aaa#",
"X..............aaa#",
"X..............aaa#",
"X..............aaa#",
"X..............aaa#",
"X..............aaa#",
"X..............aaa#",
"X..............aaa#",
"X..............aaa#",
"X..............aaa#",
"X..............aaa#",
"X..............aaa#",
"X..............aaa#",
"X..............aaa#",
"X..............aaa#",
"X..............aaa#",
"X..............aaa#",
"X..............aaa#",
"X.............aaaa#",
"X.............aaaa#",
"X.............aaaa#",
"X.............aaaa#",
"X.............aaaa#",
"X.............aaaa#",
"X.............aaaa#",
"X.............aaaa#",
"X.............aaaa#",
"X.............aaaa#",
"X.............aaaa#",
"X.............aaaa#",
"X.............aaaa#",
"X.............aaaa#",
"X.............aaaa#",
"X.............aaaa#",
"X.............aaaa#",
"X.............aaaa#",
"X.............aaaa#",
"$$$$$$$$$$$$$$$$$$$"};
/* XPM */
static char * rev_24c0c_xpm[] = {
"19 54 10 1",
" 	c #000041030000",
".	c #CF3CCF3CCF3C",
"X	c #9E799E799E79",
"o	c #4F4F4F4F4F4F",
"O	c #FFFF9A696185",
"+	c #BEFB6DB630C2",
"@	c #FFFFBAEA8617",
"#	c #BEFB7DF74103",
"$	c #410382074103",
"a	c #E3E39A696185",
"#aaaa.............+",
"#aaaa.............X",
"#aaaa.............X",
"#aaaa.............X",
"#aaaa.............X",
"#aaaa.............X",
"#aaaa.............X",
"#aaaa.............X",
"#aaaa.............+",
"#aaaa.............X",
"#aaaa.............X",
"#aaaa.............X",
"#aaaa.............X",
"#aaaa.............X",
"#aaaa.............X",
"#aaaa.............X",
"#aaa..............X",
"#aaa..............X",
"#aaa..............X",
"#aaa..............X",
"#aaa..............X",
"#aaa..............X",
"#aaa..............X",
"#aaa..............X",
"#aaa..............X",
"#aaa..............X",
"#aaa..............X",
"#aaa..............X",
"#aaa..............X",
"#aaa..............X",
"#aaa..............X",
"#aaa..............X",
"#aaa..............X",
"#aaa..............X",
"#aaaa.............X",
"#aaaa.............X",
"#aaaa.............X",
"#aaaa.............X",
"#aaaa.............X",
"#aaaa.............X",
"#aaaa.............X",
"#aaaa.............X",
"#aaaa.............X",
"#aaaa.............X",
"#aaaa.............X",
"#aaaa.............X",
"#aaaa.............X",
"#aaaa.............X",
"#aaaa.............X",
"#aaaa.............X",
"#aaaa.............X",
"#aaaa.............X",
"#aaaa.............X",
"$$$$$$$$$$$$$$$$$$$"};
/* XPM */
static char * rev_24c2_xpm[] = {
"19 36 9 1",
" 	c #CF3CCB2BCF3C",
".	c #FFFFFFFFFFFF",
"X	c #9E799E799E79",
"a	c #CF3CCF3CCF3C",
"O	c #000041030000",
"+	c #FFFF9A696185",
"@	c #BEFB6DB630C2",
"#	c #FFFFBAEA8617",
"o	c #DF7DDB6CDF7D",
"XXXXXXXXXXXXX+++++O",
".ooooooooooooo@+++ ",
".ooooooooooooo@+++ ",
".ooooooooooooo@+++ ",
".ooooooooooooo@+++ ",
".ooooooooooooo@+++ ",
".ooooooooooooo@+++ ",
".ooooooooooooo@+++ ",
".ooooooooooooo@+++ ",
".ooooooooooooo@+++ ",
".ooooooooooooo@+++ ",
".ooooooooooooo@+++ ",
".ooooooooooooo@+++ ",
".ooooooooooooo@+++ ",
".ooooooooooooo@+++ ",
".ooooooooooooo@+++ ",
".ooooooooooooo@+++ ",
".ooooooooooooo@+++ ",
".ooooooooooooo@+++ ",
".ooooooooooooo@+++ ",
".ooooooooooooo@+++ ",
".ooooooooooooo@+++ ",
".ooooooooooooo@+++ ",
".ooooooooooooo@+++ ",
".ooooooooooooo@+++ ",
".ooooooooooooo@+++ ",
".ooooooooooooo@+++ ",
".ooooooooooooo@+++ ",
".ooooooooooooo@+++ ",
".ooooooooooooo@+++ ",
".ooooooooooooo@+++ ",
".ooooooooooooo@+++ ",
".ooooooooooooo@+++ ",
".ooooooooooooo@+++ ",
".ooooooooooooo@+++ ",
"O.............####+"};
