/* XPM */
static char * rev_24c0_xpm[] = {
"19 36 9 1",
" 	c #CF3CCB2BCF3C",
".	c #FFFFFFFFFFFF",
"X	c #9E799E799E79",
"a	c #CF3CCF3CCF3C",
"O	c #000041030000",
"+	c #FFFF9A696185",
"@	c #BEFB6DB630C2",
"#	c #FFFFBAEA8617",
"o	c #DF7DDB6CDF7D",
"O++++XXXXXXXXXXXXXX",
" +++@ooooooooooooo.",
" +++@ooooooooooooo.",
" +++@ooooooooooooo.",
" +++@ooooooooooooo.",
" +++@ooooooooooooo.",
" +++@ooooooooooooo.",
" +++@ooooooooooooo.",
" +++@ooooooooooooo.",
" +++@ooooooooooooo.",
" +++@ooooooooooooo.",
" +++@ooooooooooooo.",
" +++@ooooooooooooo.",
" +++@ooooooooooooo.",
" +++@ooooooooooooo.",
" +++@ooooooooooooo.",
" +++@ooooooooooooo.",
" +++@ooooooooooooo.",
" +++@ooooooooooooo.",
" +++@ooooooooooooo.",
" +++@ooooooooooooo.",
" +++@ooooooooooooo.",
" +++@ooooooooooooo.",
" +++@ooooooooooooo.",
" +++@ooooooooooooo.",
" +++@ooooooooooooo.",
" +++@ooooooooooooo.",
" +++@ooooooooooooo.",
" +++@ooooooooooooo.",
" +++@ooooooooooooo.",
" +++@ooooooooooooo.",
" +++@ooooooooooooo.",
" +++@ooooooooooooo.",
" +++@ooooooooooooo.",
" +++@ooooooooooooo.",
"+####............ O"};
