/* XPM */
static char * rev_24c0_xpm[] = {
"56 49 8 1",
" 	c #49244D3438E3",
".	c #FFFFFFFFFFFF",
"X	c #9E799E799E79",
"o	c #CF3CCF3CCF3C",
"O	c #000041030000",
"+	c #FFFF9A696185",
"@	c #BEFB6DB630C2",
"#	c #FFFFBAEA8617",
" ....................................................XX ",
"..ooooooooooooooooooooooooooooooooooooooooooooooooooooX ",
".oooooooooooooooooooooooooooooooooooooooooooooooooooooXO",
".oooooooooooooooooooooooooooooooooooooooooooooooooooooXO",
".oooooooooooooooooooooooooooooooooooooooooooooooooooooXO",
".oooooooooooooooooooooooooooooooooooooooooooooooooooooXO",
".+++++++++++++++++++++++++++++++++++++++++++++++++++++@O",
".#++++++++++++++++++++++++++++++++++++++++++++++++++++@O",
".#####################################################@O",
".#++++++++++++++++++++++++++++++++++++++++++++++++++++@O",
".+++++++++++++++++++++++++++++++++++++++++++++++++++++@O",
".+++++++++++++++++++++++++++++++++++++++++++++++++++++@O",
".+++++++++++++++++++++++++++++++++++++++++++++++++++++@O",
".+++++++++++++++++++++++++++++++++++++++++++++++++++++@O",
".+++++++++++++++++++++++++++++++++++++++++++++++++++++@O",
".+++++++++++++++++++++++++++++++++++++++++++++++++++++@O",
".+++++++++++++++++++++++++++++++++++++++++++++++++++++@O",
".+++++++++++++++++++++++++++++++++++++++++++++++++++++@O",
".+++++++++++++++++++++++++++++++++++++++++++++++++++++@O",
".+++++++++++++++++++++++++++++++++++++++++++++++++++++@O",
".+++++++++++++++++++++++++++++++++++++++++++++++++++++@O",
".+++++++++++++++++++++++++++++++++++++++++++++++++++++@O",
".+++++++++++++++++++++++++++++++++++++++++++++++++++++@O",
".+++++++++++++++++++++++++++++++++++++++++++++++++++++@O",
".+++++++++++++++++++++++++++++++++++++++++++++++++++++@O",
".+++++++++++++++++++++++++++++++++++++++++++++++++++++@O",
".+++++++++++++++++++++++++++++++++++++++++++++++++++++@O",
".+++++++++++++++++++++++++++++++++++++++++++++++++++++@O",
".+++++++++++++++++++++++++++++++++++++++++++++++++++++@O",
".+++++++++++++++++++++++++++++++++++++++++++++++++++++@O",
".+++++++++++++++++++++++++++++++++++++++++++++++++++++@O",
".+++++++++++++++++++++++++++++++++++++++++++++++++++++@O",
".+++++++++++++++++++++++++++++++++++++++++++++++++++++@O",
".+++++++++++++++++++++++++++++++++++++++++++++++++++++@O",
".+++++++++++++++++++++++++++++++++++++++++++++++++++++@O",
".+++++++++++++++++++++++++++++++++++++++++++++++++++++@O",
".+++++++++++++++++++++++++++++++++++++++++++++++++++++@O",
".+++++++++++++++++++++++++++++++++++++++++++++++++++++@O",
".+++++++++++++++++++++++++++++++++++++++++++++++++++++@O",
".+++++++++++++++++++++++++++++++++++++++++++++++++++++@O",
".+++++++++++++++++++++++++++++++++++++++++++++++++++++@O",
".+++++++++++++++++++++++++++++++++++++++++++++++++++++@O",
".+++++++++++++++++++++++++++++++++++++++++++++++++++++@O",
".+++++++++++++++++++++++++++++++++++++++++++++++++++++@O",
".+++++++++++++++++++++++++++++++++++++++++++++++++++++@O",
".+++++++++++++++++++++++++++++++++++++++++++++++++++++@O",
".+++++++++++++++++++++++++++++++++++++++++++++++++++++@O",
".+++++++++++++++++++++++++++++++++++++++++++++++++++++@O",
".+++++++++++++++++++++++++++++++++++++++++++++++++++++@O",
".+++++++++++++++++++++++++++++++++++++++++++++++++++++@O",
".+++++++++++++++++++++++++++++++++++++++++++++++++++++@O",
".+++++++++++++++++++++++++++++++++++++++++++++++++++++@O",
".+++++++++++++++++++++++++++++++++++++++++++++++++++++@O",
".+++++++++++++++++++++++++++++++++++++++++++++++++++++@O",
".+++++++++++++++++++++++++++++++++++++++++++++++++++++@O",
".+++++++++++++++++++++++++++++++++++++++++++++++++++++@O",
".+++++++++++++++++++++++++++++++++++++++++++++++++++++@O",
".+++++++++++++++++++++++++++++++++++++++++++++++++++++@O",
".+++++++++++++++++++++++++++++++++++++++++++++++++++++@O",
"..+++++++++++++++++++++++++++++++++++++++++++++++++++@@O",
"OOOOOOOOOOOOOOOOOOOOOOOOOOOOOOOOOOOOOOOOOOOOOOOOOOOOOOOO"};
