/* XPM */
static char * rev_24c3_xpm[] = {
"41 66 8 1",
" 	c #49244D3438E3",
".	c #CF3CCF3CCF3C",
"X	c #9E799E799E79",
"o	c #BEFB71C64924",
"O	c #FFFF9A696185",
"+	c #BEFB6DB630C2",
"@	c #FFFFBAEA8617",
"#	c #DF7D86175144",
" .....................................XX ",
".......................................X ",
".......................................Xo",
".......................................Xo",
".......................................Xo",
".......................................Xo",
".OOOOOOOOOOOOOOOOOOOOOOOOOOOOOOOOOOOOOO+o",
".@OOOOOOOOOOOOOOOOOOOOOOOOOOOOOOOOOOOOO+o",
".@@@@@@@@@@@@@@@@@@@@@@@@@@@@@@@@@@@@@@+o",
".@OOOOOOOOOOOOOOOOOOOOOOOOOOOOOOOOOOOO##o",
".OOOOOOOOOOOOOOOOOOOOOOOOOOOOOOOOOOOOOO#o",
".OOOOOOOOOOOOOOOOOOOOOOOOOOOOOOOOOOOOOO#o",
".OOOOOOOOOOOOOOOOOOOOOOOOOOOOOOOOOOOOOO#o",
".OOOOOOOOOOOOOOOOOOOOOOOOOOOOOOOOOOOOOO#o",
".OOOOOOOOOOOOOOOOOOOOOOOOOOOOOOOOOOOOOO#o",
".OOOOOOOOOOOOOOOOOOOOOOOOOOOOOOOOOOOOOO#o",
".OOOOOOOOOOOOOOOOOOOOOOOOOOOOOOOOOOOOOO#o",
".OOOOOOOOOOOOOOOOOOOOOOOOOOOOOOOOOOOOOO#o",
".OOOOOOOOOOOOOOOOOOOOOOOOOOOOOOOOOOOOOO#o",
".OOOOOOOOOOOOOOOOOOOOOOOOOOOOOOOOOOOOOO#o",
".OOOOOOOOOOOOOOOOOOOOOOOOOOOOOOOOOOOOOO#o",
".OOOOOOOOOOOOOOOOOOOOOOOOOOOOOOOOOOOOOO#o",
".OOOOOOOOOOOOOOOOOOOOOOOOOOOOOOOOOOOOOO#o",
".OOOOOOOOOOOOOOOOOOOOOOOOOOOOOOOOOOOOOO#o",
".OOOOOOOOOOOOOOOOOOOOOOOOOOOOOOOOOOOOOO#o",
".OOOOOOOOOOOOOOOOOOOOOOOOOOOOOOOOOOOOOO#o",
".OOOOOOOOOOOOOOOOOOOOOOOOOOOOOOOOOOOOOO#o",
".OOOOOOOOOOOOOOOOOOOOOOOOOOOOOOOOOOOOOO#o",
".OOOOOOOOOOOOOOOOOOOOOOOOOOOOOOOOOOOOOO#o",
".OOOOOOOOOOOOOOOOOOOOOOOOOOOOOOOOOOOOOO#o",
".OOOOOOOOOOOOOOOOOOOOOOOOOOOOOOOOOOOOOO#o",
".OOOOOOOOOOOOOOOOOOOOOOOOOOOOOOOOOOOOOO#o",
".OOOOOOOOOOOOOOOOOOOOOOOOOOOOOOOOOOOOOO#o",
".OOOOOOOOOOOOOOOOOOOOOOOOOOOOOOOOOOOOOO#o",
".OOOOOOOOOOOOOOOOOOOOOOOOOOOOOOOOOOOOOO#o",
".OOOOOOOOOOOOOOOOOOOOOOOOOOOOOOOOOOOOOO#o",
".OOOOOOOOOOOOOOOOOOOOOOOOOOOOOOOOOOOOOO#o",
".OOOOOOOOOOOOOOOOOOOOOOOOOOOOOOOOOOOOOO#o",
".OOOOOOOOOOOOOOOOOOOOOOOOOOOOOOOOOOOOOO#o",
".OOOOOOOOOOOOOOOOOOOOOOOOOOOOOOOOOOOOOO#o",
".OOOOOOOOOOOOOOOOOOOOOOOOOOOOOOOOOOOOOO#o",
".OOOOOOOOOOOOOOOOOOOOOOOOOOOOOOOOOOOOOO#o",
".OOOOOOOOOOOOOOOOOOOOOOOOOOOOOOOOOOOOOO#o",
".OOOOOOOOOOOOOOOOOOOOOOOOOOOOOOOOOOOOOO#o",
".OOOOOOOOOOOOOOOOOOOOOOOOOOOOOOOOOOOOOO#o",
".OOOOOOOOOOOOOOOOOOOOOOOOOOOOOOOOOOOOOO#o",
".OOOOOOOOOOOOOOOOOOOOOOOOOOOOOOOOOOOOOO#o",
".OOOOOOOOOOOOOOOOOOOOOOOOOOOOOOOOOOOOOO#o",
".OOOOOOOOOOOOOOOOOOOOOOOOOOOOOOOOOOOOOO#o",
".OOOOOOOOOOOOOOOOOOOOOOOOOOOOOOOOOOOOOO#o",
".OOOOOOOOOOOOOOOOOOOOOOOOOOOOOOOOOOOOOO#o",
".OOOOOOOOOOOOOOOOOOOOOOOOOOOOOOOOOOOOOO#o",
".OOOOOOOOOOOOOOOOOOOOOOOOOOOOOOOOOOOOOO#o",
".OOOOOOOOOOOOOOOOOOOOOOOOOOOOOOOOOOOOOO#o",
".OOOOOOOOOOOOOOOOOOOOOOOOOOOOOOOOOOOOOO#o",
".OOOOOOOOOOOOOOOOOOOOOOOOOOOOOOOOOOOOOO#o",
".OOOOOOOOOOOOOOOOOOOOOOOOOOOOOOOOOOOOOO#o",
".OOOOOOOOOOOOOOOOOOOOOOOOOOOOOOOOOOOOOO#o",
".OOOOOOOOOOOOOOOOOOOOOOOOOOOOOOOOOOOOOO#o",
".OOOOOOOOOOOOOOOOOOOOOOOOOOOOOOOOOOOOOO#o",
".OOOOOOOOOOOOOOOOOOOOOOOOOOOOOOOOOOOOOO#o",
".OOOOOOOOOOOOOOOOOOOOOOOOOOOOOOOOOOOOOO#o",
".OOOOOOOOOOOOOOOOOOOOOOOOOOOOOOOOOOOOOO#o",
".OOOOOOOOOOOOOOOOOOOOOOOOOOOOOOOOOOOOOO#o",
".@OOOOOOOOOOOOOOOOOOOOOOOOOOOOOOOOOOOO##o",
"ooooooooooooooooooooooooooooooooooooooooo"};
