/* XPM */
static char * adigit0_xpm [] = {
"12 18 5 1",
"b	c black",
"w	c white",
"g	c gray ",
"c	c DarkSeaGreen",
" 	s None	c None",
"    ccccccc ",
"   ccccccccc",
"   ccccccccc",
"  cccc  cccc",
" cccc  cccgc",
" cccc  cccc ",
" cccc  ccgg ",
" ccc  cccc  ",
" ccc  cccc  ",
"cccc  cccc  ",
"cccc  cgcc  ",
"cccc  cccc  ",
"ccc  cgcc   ",
"ccc  cccc   ",
"ccc  cccc   ",
"ccccccccc   ",
"cccccccc    ",
" cccccc     "};
