/* XPM */
static char * adigit2_xpm [] = {
"12 18 5 1",
"b	c black",
"w	c white",
"g	c gray ",
"c	c DarkSeaGreen",
" 	s None	c None",
"  ccccccc   ",
" ccccccccc  ",
"ccccccccccc ",
"         cc ",
"        ccc ",
"        cc  ",
"       ccc  ",
"  ccccccc   ",
" ccccccc    ",
" ccccccc    ",
"gccc        ",
"ccc         ",
"gcc         ",
"ccc         ",
"ccc         ",
"cccccccccc  ",
"ccccccccc   ",
" cccccccc   "};
