/* XPM */
static char * adigit6_xpm [] = {
"12 18 5 1",
"b	c black",
"w	c white",
"g	c gray ",
"c	c DarkSeaGreen",
" 	s None	c None",
"      cccc  ",
"    cccccccc",
"   ccccccccc",
"   cccc     ",
"  ccccg     ",
"  cccc      ",
" cccc       ",
" ccccccccc  ",
"ccccccccccc ",
"ccccccccccc ",
"cccc   gccc ",
"ccc    ccc  ",
"ccc   gccc  ",
"ccg   cccc  ",
"cc    cccc  ",
"ccccccccc   ",
"cccccccc    ", 
"cccccccc    "};
