/* XPM */
static char * adigit8_xpm [] = {
"12 18 5 1",
"b	c black",
"w	c white",
"g	c gray ",
"c	c DarkSeaGreen",
" 	s None	c None",
"      cccc  ",
"    cccccccc",
"   ccccccccc",
"   cccc  ccc",
"   cccg cccg",
"   ccc  ccc ",
"  gccc gccc ",
"  ccc  cccg ",
"  cccccccc  ",
" cccccccc   ",
" cccccccc   ",
"gccc  ccc   ",
"ccc   ccc   ",
"ccc  gccc   ",
"ccc  cccg   ",
"cccccccc    ",
"ccccccc     ",
"cccccc      "};
