/* XPM */
static char * adigit5_xpm [] = {
"12 18 5 1",
"b	c black",
"w	c white",
"g	c gray ",
"c	c DarkSeaGreen",
" 	s None	c None",
"      cccc  ",
"     cccccc ",
"   ccccccccc",
"   ccc      ",
"  cccg      ",
"  ccc       ",
" ccc        ",
" cccccccc   ",
"ccccccccc   ",
"ccccccccc   ",
"    gcccc   ",
"    cccc    ",
"   gcccc    ",
"   ccccg    ",
"   cccc     ",
"ccccccc     ",
"cccccc      ",
"ccccc       "};
