/* XPM */
static char * adigit7_xpm [] = {
"12 18 5 1",
"b	c black",
"w	c white",
"g	c gray ",
"c	c DarkSeaGreen",
" 	s None	c None",
"   cccccc   ",
" cccccccccc ",
"ccccccccccc ",
"        ccc ",
"       cccg ",
"       ccc  ",
"      gccc  ",
"      ccc   ",
"      ccc   ",
"     ccc    ",
"     ccc    ",
"     ccc    ",
"    ccc     ",
"   gccc     ",
"   cccg     ",
"   ccc      ",
"   ccc      ",
"  ccc       "};
