/* XPM */
static char * adigitm_xpm [] = {
"12 18 5 1",
"b	c black",
"w	c white",
"g	c gray ",
"c	c DarkSeaGreen",
" 	s None	c None",
"            ",
"            ",
"            ",
"            ",
"            ",
"            ",
"            ",
"            ",
"   cccccc   ",
"  cccccc    ",
"  cccccc    ",
"            ",
"            ",
"            ",
"            ",
"            ",
"            ",
"            "};
