/* XPM */
static char * adigit3_xpm [] = {
"12 18 5 1",
"b	c black",
"w	c white",
"g	c gray ",
"c	c DarkSeaGreen",
" 	s None	c None",
"    ccccc   ",
"   ccccccc  ",
"  ccccccccc ",
"       cccc ",
"      gcccc ",
"      cccc  ",
"     gcccc  ",
"     ccccg  ",
" cccccccc   ",
"cccccccc    ",
"ccccccccc   ",
"     cccc   ",
"     cccc   ",
"    ccccc   ",
"    cccc    ",
"cccccccc    ",
"cccccccc    ",
" ccccc      "};
