/* XPM */
static char * adigit1_xpm [] = {
"12 18 5 1",
"b	c black",
"w	c white",
"g	c gray ",
"c	c DarkSeaGreen",
" 	s None	c None",
"        ccc ",
"        cccc",
"        cccc",
"        cccc",
"       cccgc",
"       cccc ",
"       ccgg ",
"      cccc  ",
"      cccc  ",
"      cccc  ",
"      cgcc  ",
"      cccc  ",
"     cgcc   ",
"     cccc   ",
"     cccc   ",
"     cccc   ",
"    cccc    ",
"    ccc     "};
