/* XPM */
static char * advice_xpm[] = {
"51 18 3 1",
"X 	s None	c None ",
"o	c antiquewhite",
"z	c gray",
"XXXXXXXXXXXXXXXXXXXXXXXXXXXXXXXXXXXXXXXXXXXXXXXXXXX",
"XXXXXXXozXXXXXXXXXXXXXXXXXXXozXXXXXXXXXXXXXXXozXXXX",
"XXXXXXXozXXXXXXXXXXooooozXXXozXXXXXXozXXXXXXXozXXXX",
"XXXXXXXozXXXXXoozXXozXXozXXXozXXXXXXozXXXXXXXozXXXX",
"XXXXXXXooooozXXoozXozXXozXXXozXXXXXoozXXXXXXXozXXXX",
"XXXooooozXXXXXXXozXozXXozoooooooozXozXXoooooooooooz",
"XXXXXXXozXXXXXXXXXXooooozXXXozXXozXozXXXXXXXXozXXXX",
"XXXXXXXozXXXXXXXXXXozXXozXXXozXXozXozXXXXXXXXozXXXX",
"XXXXXXXozoooooozXXXozXXozXXXozXXozXozXXXXXXXXozXXXX",
"XXXXXXXooozXXXoozXXozXXozXXXozXXozXozXXXXXXXXozXXXX",
"XXXXXooozXXXXXXoozXooooozXXoozXXozXozXXXXXXXXozXXXX",
"XXXXoozozXXXXXXXozXozXXozXXozXXXozXozozXXXXXXozXXXX",
"XXXoozXozXXXXXXXozXozXXozXXozXXXozXoozXXXXXXoozXXXX",
"XXXozXXozXXXXXXoozXozXXozXoozXXoozXXozXXXXXXozXXXXX",
"XXXozXoozXXXXXoozXXoooooozozXXXozXXXXXXXXXXoozXXXXX",
"XXXXooozXXXXooozXXoozXXXXoozXXXozXXXXXXXXXoozXXXXXX",
"XXXXXXXXXXXXXXXXXXXXXXXXoozXXooozXXXXXXXXXXXXXXXXXX",
"XXXXXXXXXXXXXXXXXXXXXXXXXXXXXXXXXXXXXXXXXXXXXXXXXXX",
};
/* XPM */
static char * advtumo_xpm[] = {
"35 18 3 1",
"X 	s None	c None ",
"o	c antiquewhite",
"z	c gray",
"XXXXXXXXXXXXXXXXXXXXXXXXXXXXXXXXXXX",
"XXXXXXXXXXXXXXXXXXXXXXXXXXXXXXXXXXX",
"XXXXXXXXXXXXXXXXXXXXXXXXXXXXXXXXXXX",
"XXXXXXXozXXXXXXXXXXXooooooooooozXXX",
"XXXozXXoozXXXXXXozXXXXXXozXXXXXXXXX",
"XXXoozXXozXXXXXXozXXXXXXozXXXXXXXXX",
"XXXXozXXoozXXXXoozXXXXXXozXXXXXXXXX",
"XXXXoozXXozXXXXozXXXXXXXozXXXXXXXXX",
"XXXXXozXXXXXXXoozXXooooooooooooozXX",
"XXXXXXXXXXXXXXozXXXXXXXXozXXXXXXXXX",
"XXXXXXXXXXXXXoozXXXXXXXXozXXXXXXXXX",
"XXXXXXXXXXXXoozXXXXXXXXXozXXXXXXXXX",
"XXXXXXXXXXXoozXXXXXXXXXXozXXXXXXXXX",
"XXXXXXXXXXoozXXXXXXXXXXXoozXXXXXXXX",
"XXXXXXXXooozXXXXXXXXXXXXXooooooozXX",
"XXXXXXooozXXXXXXXXXXXXXXXXXXXXXXXXX",
"XXXXXXXXXXXXXXXXXXXXXXXXXXXXXXXXXXX",
"XXXXXXXXXXXXXXXXXXXXXXXXXXXXXXXXXXX",
};
/* XPM */
static char * advreach_xpm[] = {
"51 18 3 1",
"X 	s None	c None ",
"o	c antiquewhite",
"z	c gray",
"XXXXXXXXXXXXXXXXXXXXXXXXXXXXXXXXXXXXXXXXXXXXXXXXXXX",
"XXXXXXXXXXXXXXXXXXXXXXXXXXXXXXXXXXXXXXXXXXXXXXXXXXX",
"XXXXXXozXXXXXXozXXXXXXXXXXXXXXXXXXXXXXXXXXXXXoozXXX",
"XXXXXXozXXXXXXozXXXXXXXXXXXXXXXXXXXXXXXXXXoooozXXXX",
"XXXXXXozXXXXXXozXXXXXXXXXXXXXXXXXXXXXoooooozXXXXXXX",
"XXXXXXozXXXXXXozXXXXXXXXXXXXXXXXXXXXXXXXXXozXXXXXXX",
"XXXXXXozXXXXXXozXXXXXXXXXXXXXXXXXXXXXXXXXXozXXXXXXX",
"XXXXXXozXXXXXXozXXXozXXXXXXXXXXXXXXXXXXXXXozXXXXXXX",
"XXXXXXozXXXXXXozXXXXooooooooooooozXoooooooooooooozX",
"XXXXXXozXXXXXXozXXXXXXXXXXXXXXXXXXXXXXXXXXozXXXXXXX",
"XXXXXXXXXXXXXXozXXXXXXXXXXXXXXXXXXXXXXXXXXozXXXXXXX",
"XXXXXXXXXXXXXoozXXXXXXXXXXXXXXXXXXXXXXXXXoozXXXXXXX",
"XXXXXXXXXXXXXozXXXXXXXXXXXXXXXXXXXXXXXXXXozXXXXXXXX",
"XXXXXXXXXXXXoozXXXXXXXXXXXXXXXXXXXXXXXXXoozXXXXXXXX",
"XXXXXXXXXXXoozXXXXXXXXXXXXXXXXXXXXXXXXXoozXXXXXXXXX",
"XXXXXXXXXooozXXXXXXXXXXXXXXXXXXXXXXXXooozXXXXXXXXXX",
"XXXXXXXXXXXXXXXXXXXXXXXXXXXXXXXXXXXXXXXXXXXXXXXXXXX",
"XXXXXXXXXXXXXXXXXXXXXXXXXXXXXXXXXXXXXXXXXXXXXXXXXXX",
};
/* XPM */
static char * advtahai_xpm[] = {
"35 18 3 1",
"X 	s None	c None ",
"o	c antiquewhite",
"z	c gray",
"XXXXXXXXXXXXXXXXXXXXXXXXXXXXXXXXXXX",
"XXXXXozXXXXXXXXXXXXXXXXXXXXXozXXXXX",
"XXXXXozXXXXXXXXXXXXozXozXXXozXXXXXX",
"XXXXXozXoooooooooozozXozXoooooooozX",
"XXXXXozXXXXXXXozXXXozXozXozXozXXozX",
"XXoooooozXXXXXozXXXozXozXozXozXXozX",
"XXXXXozXXXXXXXozXXXooooozoooooooozX",
"XXXXXozXXXXXXXozXXXozXXXXozXozXXozX",
"XXXXXozXXXXXXXozXXXozXXXXozXozXXozX",
"XXXXXooozXXXXXozXXXozXXXXoooooooozX",
"XXoooozXXXXXXXozXXXoooozXXXozXozXXX",
"XXXXXozXXXXXXXozXXXozXozXXozXXozXXX",
"XXXXXozXXXXXXXozXXXozXozooooooooooz",
"XXXXXozXXXXXXXozXXXozXozXXXXXXozXXX",
"XXXXXozXXXXXXXozXXXozXozXXXXXXozXXX",
"XXXXXozXXXXXXXozXXoozXozXXXXXXozXXX",
"XXXooozXXXXXooozXXozXXozXXXXXXozXXX",
"XXXXXXXXXXXXXXXXXXXXXXXXXXXXXXXXXXX",
};
/* XPM */
static char * b_advice_xpm[] = {
"51 18 3 1",
"X 	s None	c None ",
"o	c antiquewhite",
"z	c gray",
"XXXXXXXXXXXXXXXXXXXXXXXXXXXXXXXXXXXXXXXXXXXXXXXXXXX",
"XXXXXXXozXXXXXXXXXXXXXXXXXXXozXXXXXXXXXXXXXXXozXXXX",
"XXXXXXXozXXXXXXXXXXooooozXXXozXXXXXXozXXXXXXXozXXXX",
"XXXXXXXozXXXXXoozXXozXXozXXXozXXXXXXozXXXXXXXozXXXX",
"XXXXXXXooooozXXoozXozXXozXXXozXXXXXoozXXXXXXXozXXXX",
"XXXooooozXXXXXXXozXozXXozoooooooozXozXXoooooooooooz",
"XXXXXXXozXXXXXXXXXXooooozXXXozXXozXozXXXXXXXXozXXXX",
"XXXXXXXozXXXXXXXXXXozXXozXXXozXXozXozXXXXXXXXozXXXX",
"XXXXXXXozoooooozXXXozXXozXXXozXXozXozXXXXXXXXozXXXX",
"XXXXXXXooozXXXoozXXozXXozXXXozXXozXozXXXXXXXXozXXXX",
"XXXXXooozXXXXXXoozXooooozXXoozXXozXozXXXXXXXXozXXXX",
"XXXXoozozXXXXXXXozXozXXozXXozXXXozXozozXXXXXXozXXXX",
"XXXoozXozXXXXXXXozXozXXozXXozXXXozXoozXXXXXXoozXXXX",
"XXXozXXozXXXXXXoozXozXXozXoozXXoozXXozXXXXXXozXXXXX",
"XXXozXoozXXXXXoozXXoooooozozXXXozXXXXXXXXXXoozXXXXX",
"XXXXooozXXXXooozXXoozXXXXoozXXXozXXXXXXXXXoozXXXXXX",
"XXXXXXXXXXXXXXXXXXXXXXXXoozXXooozXXXXXXXXXXXXXXXXXX",
"XXXXXXXXXXXXXXXXXXXXXXXXXXXXXXXXXXXXXXXXXXXXXXXXXXX",
};
/* XPM */
static char * advron_xpm[] = {
"35 18 3 1",
"X 	s None	c None ",
"o	c antiquewhite",
"z	c gray",
"XXXXXXXXXXXXXXXXXXXXXXXXXXXXXXXXXXX",
"XXXXXXXXXXXXXXXXXXXXXXXXXXXXXXXXXXX",
"XXXXXXXXXXXXXXXXXXXXXXXXXXXXXXXXXXX",
"XXXXXXXXXXXXXXXXXXXXoozXXXXXXXXXXXX",
"XXXXXoooooooooozXXXXXooozXXXXXXXXXX",
"XXXXXozXXXXXXXozXXXXXXXoozXXXXXXXXX",
"XXXXXozXXXXXXXozXXXXXXXXXXXXXXXXozX",
"XXXXXozXXXXXXXozXXXXXXXXXXXXXXXoozX",
"XXXXXozXXXXXXXozXXXXXXXXXXXXXXoozXX",
"XXXXXozXXXXXXXozXXXXXXXXXXXXXoozXXX",
"XXXXXozXXXXXXXozXXXXXXXXXXXXoozXXXX",
"XXXXXozXXXXXXXozXXXXXXXXXXXoozXXXXX",
"XXXXXozXXXXXXXozXXXXXXXXXooozXXXXXX",
"XXXXXoooooooooozXXXXXXXooozXXXXXXXX",
"XXXXXXXXXXXXXXXXXXXXoooozXXXXXXXXXX",
"XXXXXXXXXXXXXXXXXXXXXXXXXXXXXXXXXXX",
"XXXXXXXXXXXXXXXXXXXXXXXXXXXXXXXXXXX",
"XXXXXXXXXXXXXXXXXXXXXXXXXXXXXXXXXXX",
};
/* XPM */
static char * advpon_xpm[] = {
"35 18 3 1",
"X 	s None	c None ",
"o	c antiquewhite",
"z	c gray",
"XXXXXXXXXXXXXXXXXXXXXXXXXXXXXXXXXXX",
"XXXXXXXXXXXXXXXXXXXXXXXXXXXXXXXXXXX",
"XXXXXXXXXozXXXXXXXXXXXXXXXXXXXXXXXX",
"XXXXXXXXXozXXXXoozXXoozXXXXXXXXXXXX",
"XXXXXXXXXozXXXozXozXXooozXXXXXXXXXX",
"XXXoooooooooooozXozXXXXoozXXXXXXXXX",
"XXXXXXXXXozXXXXoozXXXXXXXXXXXXXXozX",
"XXXXXXXXXozXXXXXXXXXXXXXXXXXXXXoozX",
"XXXXXXozXozXozXXXXXXXXXXXXXXXXoozXX",
"XXXXXXozXozXoozXXXXXXXXXXXXXXoozXXX",
"XXXXXoozXozXXoozXXXXXXXXXXXXoozXXXX",
"XXXXXozXXozXXXozXXXXXXXXXXXoozXXXXX",
"XXXXoozXXozXXXoozXXXXXXXXooozXXXXXX",
"XXXoozXXXozXXXXozXXXXXXooozXXXXXXXX",
"XXXXXXXXXozXXXXXXXXXoooozXXXXXXXXXX",
"XXXXXXXooozXXXXXXXXXXXXXXXXXXXXXXXX",
"XXXXXXXXXXXXXXXXXXXXXXXXXXXXXXXXXXX",
"XXXXXXXXXXXXXXXXXXXXXXXXXXXXXXXXXXX",
};
/* XPM */
static char * advtie_xpm[] = {
"35 18 3 1",
"X 	s None	c None ",
"o	c antiquewhite",
"z	c gray",
"XXXXXXXXXXXXXXXXXXXXXXXXXXXXXXXXXXX",
"XXXXXXXXXXXXXXXXXXXXXXXXXXXXXXXXXXX",
"XXXXXXXXXXXXXoozXXXXXXXXXXXXXXXXXXX",
"XXXXXXXXXXoooozXXXXXXXXXXXXXXXXXXXX",
"XXXXXoooooozXXXXXXXXXXXXXXXXXXXXXXX",
"XXXXXXXXXXozXXXXXXXXXXXXXXXXXXXXXXX",
"XXXXXXXXXXozXXXXXXXXXXXXXXXXXXXXXXX",
"XXXXXXXXXXozXXXXXXXozXXXXXXXXXXXXXX",
"XXXoooooooooooooozXXooooooooooooozX",
"XXXXXXXXXXozXXXXXXXXXXXXXXXXXXXXXXX",
"XXXXXXXXXXozXXXXXXXXXXXXXXXXXXXXXXX",
"XXXXXXXXXoozXXXXXXXXXXXXXXXXXXXXXXX",
"XXXXXXXXXozXXXXXXXXXXXXXXXXXXXXXXXX",
"XXXXXXXXoozXXXXXXXXXXXXXXXXXXXXXXXX",
"XXXXXXXoozXXXXXXXXXXXXXXXXXXXXXXXXX",
"XXXXXooozXXXXXXXXXXXXXXXXXXXXXXXXXX",
"XXXXXXXXXXXXXXXXXXXXXXXXXXXXXXXXXXX",
"XXXXXXXXXXXXXXXXXXXXXXXXXXXXXXXXXXX",
};
/* XPM */
static char * advkan_xpm[] = {
"35 18 3 1",
"X 	s None	c None ",
"o	c antiquewhite",
"z	c gray",
"XXXXXXXXXXXXXXXXXXXXXXXXXXXXXXXXXXX",
"XXXXXXXXXozXXXXXXXXXXXXXXXXXXXXXXXX",
"XXXXXXXXXozXXXXXXXXXXXXXXXXXXXXXXXX",
"XXXXXXXXXozXXXXXXXXXoozXXXXXXXXXXXX",
"XXXXXXXXXozXXXXXXXXXXooozXXXXXXXXXX",
"XXXXoooooooooooozXXXXXXoozXXXXXXXXX",
"XXXXXXXXXozXXXXozXXXXXXXXXXXXXXXozX",
"XXXXXXXXXozXXXXozXXXXXXXXXXXXXXoozX",
"XXXXXXXXoozXXXXozXXXXXXXXXXXXXoozXX",
"XXXXXXXXozXXXXXozXXXXXXXXXXXXoozXXX",
"XXXXXXXXozXXXXXozXXXXXXXXXXXoozXXXX",
"XXXXXXXoozXXXXXozXXXXXXXXXXoozXXXXX",
"XXXXXXXozXXXXXoozXXXXXXXXooozXXXXXX",
"XXXXXXoozXXXXXozXXXXXXXooozXXXXXXXX",
"XXXXXoozXXXXXXozXXXXoooozXXXXXXXXXX",
"XXXXoozXXXXoooozXXXXXXXXXXXXXXXXXXX",
"XXXXXXXXXXXXXXXXXXXXXXXXXXXXXXXXXXX",
"XXXXXXXXXXXXXXXXXXXXXXXXXXXXXXXXXXX",
};
#if 0
/* XPM */
static char * advesc_xpm[] = {
"51 18 3 1",
"X 	s None	c None ",
"o	c antiquewhite",
"z	c gray",
"XXXXXXXXXXXXXXXXXXXXXXXXXXXXXXXXXXX",
"XXXXXXXXXXXXXXXXXXXXXXXXXXXXXXXXXXX",
"XXoooooooooooooooozXXooooooooozXXXX",
"XXXXXXXXXXXXXXXXXXXXXXXXXXXoozXXXXX",
"XXXXoooooooooooozXXXXXXXXXoozXXXXXX",
"XXXXozXXXXXXXXXozXXXXXXXXoozXXXXXXX",
"XXXXozXXXXXXXXXozXXXXXXXoozXXXXXXXX",
"XXXXoooooooooooozXXXXXXooooooozXXXX",
"XXXXozXXXXozXXXXXXXXXXoozXXXXoozXXX",
"XXXXozXXXXozXXXXXXXXXoozXXXXXXoozXX",
"XXXXoooooooooooooozXoozXXXXXXXXozXX",
"XXXXozXXXXozXXXXXXXXXXXooozXXXXozXX",
"XXXXozXXXooozXXXXXXXXXozXoozXXXozXX",
"XXXoozXXXozoozXXXXXXXXozXXozXXoozXX",
"XXXozXXXoozXoozXXXXXXXoozXozXoozXXX",
"XXoozXXoozXXXooozXXXXXXooooooozXXXX",
"XXXXXooozXXXXXXooozXXXXXXXXXXXXXXXX",
"XXXXXXXXXXXXXXXXXXXXXXXXXXXXXXXXXXX",
};
#else
/* XPM */
static char * advesc_xpm[] = {
"35 18 3 1",
"X	s None c None",
"o	c antiquewhite",
"z	c gray",
"XXXXXXXXXXXXXXXXXXXXXXXXXXXXXXXXXXX",
"XXXXXozXXXXXXXXXXXXXXozXXXXXXXXXXXX",
"XXXXXozXXXXXXXXXXXXXXozXXXooooooozX",
"XXXXooooooooooooozXXXozXXXozXXXXozX",
"XXXooozXozXozXozXXoooooozXozXXXXozX",
"XXoozozXozXozXozXXXXXXXozXooooooozX",
"XXXXXozXozXozXozXXXXXXoozXozXXXXozX",
"XXoooooooooooooooozXXXozXXozXXXXozX",
"XXXXXozXozXozXozXXXXXoozXXooooooozX",
"XXXXXozXozXozXozXXXXoozXXXozXXXXozX",
"XXXXXozXozXozXozXXXooooozXozXXXXozX",
"XXoooooooooooooooooozozoozooooooozX",
"XXXXXXXXXXXXXXXXXXXXXozXXXXozXozXXX",
"XXXXXXXXXXXXXXXXXXXXXozXXXXozXozXXX",
"XXXXozXozXXozXXozXXXXozXXXXozXozXoz",
"XXXoozXoozXoozXoozXXXozXXXoozXozXoz",
"XXoozXXXozXXozXXoozXXozXXoozXXXoooz",
"XXXXXXXXXXXXXXXXXXXXXXXXXXXXXXXXXXX",
};
#endif
/* XPM */
static char * advtenpai_xpm[] = {
"79 16 3 1",
"X	s None c None",
"o	c yellow",
"z	c darkorange",
"XXXXXXXXXXXXXXXXXXXXXXXXXXXXXXXXXXXXXXXXXXXXXXXXXXXXXXXXXXXXXXXXXXXXXXXXXXXXXXX",
"XXXXXXXXozXXXXXXXXXXXXXXXXXXXXXXXXXXXXXXXXXXXXXXXXXXXXXXXXXXXXXXXXXXXXXXXXozXXX",
"XXXXXXXozXXXXXXXXXXXXXXXXXXXXXXXXXXXXXXXXXXXXXXXXXXXXXXXXXXXXXXXXXXXXXXozXXozXX",
"XXXXXXozXXXXoooooooooooozXXXoozXXXXXXXXXXXXXXXXXXXXXXXXoozXXXXXXXXXXXXoozXXXozX",
"XXXXXXozXXXXXXXXXXXXXXXXXXXXXooozXXXXXXXXXXXXXozXXXozXozXozXXXXXXXXXXoozXXXXozX",
"XXXXXozXXXXXXXXXXXXXXXXXXXXXXXXoozXXXXXXXXXXXXozXXXoozozXozXXXXXXXXXoozXXXXXXoz",
"XXXXXozXXXXXXXXXXXXXXXXXXXXXXXXXXXXXXXXXozXXXXozXXXXozXoozXXXXXXXXooozXXXXXXXoz",
"XXXXXozXXXXoooooooooooooozXXXXXXXXXXXXXoozXXXoozXXXXoozXXXXXXXXXooozXXXXXXXXXoz",
"XXXXXozXXXXXXXXXXXozXXXXXXXXXXXXXXXXXXoozXXXXozXXXXXXozXXXXXXXooozozXXXXXXXXXoz",
"XXXXXozXXXXXXXXXXXozXXXXXXXXXXXXXXXXXoozXXXXXozXXXXXXoozXXXoooozXXozXXXXXXXXXoz",
"XXXXXozXXXXXXXXXXXozXXXXXXXXXXXXXXXXoozXXXXXXozXXXXXXXozXXXXXXXXXXozXXXXXXXXXoz",
"XXXXXozXXXXXXXXXXoozXXXXXXXXXXXXXXXoozXXXXXXoozXXXXXXXozXXXXXXXXXXozXXXXXXXXXoz",
"XXXXXozXXXXXXXXXXozXXXXXXXXXXXXXXooozXXXXXXXozXXXXXXXXoozXXXXXXXXXozXXXXXXXXXoz",
"XXXXXXozXXXXXXXXoozXXXXXXXXXXXXooozXXXXXXXXoozXXXXXXXXXozXXXXXXXXXozXXXXXXXXozX",
"XXXXXXozXXXXXXXoozXXXXXXXXXXoooozXXXXXXXXXoozXXXXXXXXXXozXXXXXXXXXozXXXXXXXXozX",
"XXXXXXXozXXXXooozXXXXXXXXXXXXXXXXXXXXXXXXXXXXXXXXXXXXXXXXXXXXXXXXXozXXXXXXXozXX",
};
