/* XPM */
static char * bdigit2_xpm [] = {
"24 18 5 1",
"b	c black",
"w	c white",
"g	c gray ",
"c	c yellow ",
" 	s None	c None",
"        ccccccccccccc   ",
"       ccccccccccccccc  ",
"     cccccccccccccccccc ",
"                   cccc ",
"                  gcccc ",
"                  cccc  ",
"                 gcccc  ",
"    ccccccccccccccccc   ",
"  cccccccccccccccccc    ",
"  cccccccccccccccccc    ",
" gcccc                  ",
" cccc                   ",
"gcccc                   ",
"cccc                    ",
"cccc                    ",
"cccccccccccccccccc      ",
"ccccccccccccccccc       ",
" ccccccccccccccc        "};
