/* XPM */
static char * bdigit6_xpm [] = {
"24 18 5 1",
"b	c black",
"w	c white",
"g	c gray ",
"c	c yellow ",
" 	s None	c None",
"        ccccccccccccc   ",
"      ccccccccccccccccc ",
"     cccccccccccccccccc ",
"     cccc               ",
"    ccccg               ",
"    cccc                ",
"   cccc                 ",
"   ccccccccccccccccc    ",
"  ccccccccccccccccccc   ",
"  cccccccccccccccccc    ",
" gcccc         gcccc    ",
" cccc          cccc     ",
"gcccc         gcccc     ",
"ccccg         ccccg     ",
"cccc          cccc      ",
"cccccccccccccccccc      ",
"ccccccccccccccccc       ",
" ccccccccccccccc        "};
