/* XPM */
static char * bdigit3_xpm [] = {
"24 18 5 1",
"b	c black",
"w	c white",
"g	c gray ",
"c	c yellow ",
" 	s None	c None",
"        ccccccccccccc   ",
"       ccccccccccccccc  ",
"     cccccccccccccccccc ",
"                   cccc ",
"                  gcccc ",
"                  cccc  ",
"                 gcccc  ",
"                 ccccg  ",
"    ccccccccccccccccc   ",
"  cccccccccccccccccc    ",
"   ccccccccccccccccc    ",
"               gcccc    ",
"               cccc     ",
"              gcccc     ",
"              cccc      ",
"cccccccccccccccccc      ",
"ccccccccccccccccc       ",
" ccccccccccccccc        "};
