/* XPM */
static char * bdigit5_xpm [] = {
"24 18 5 1",
"b	c black",
"w	c white",
"g	c gray ",
"c	c yellow ",
" 	s None	c None",
"        ccccccccccccc   ",
"       ccccccccccccccc  ",
"     cccccccccccccccccc ",
"     cccc               ",
"    ccccg               ",
"    cccc                ",
"   cccc                 ",
"   ccccccccccccccccc    ",
"  cccccccccccccccccc    ",
"  cccccccccccccccccc    ",
"               gcccc    ",
"               cccc     ",
"              gcccc     ",
"              ccccg     ",
"              cccc      ",
"cccccccccccccccccc      ",
"ccccccccccccccccc       ",
" ccccccccccccccc        "};
