/* XPM */
static char * bdigit1_xpm [] = {
"24 18 5 1",
"b	c black",
"w	c white",
"g	c gray ",
"c	c yellow ",
" 	s None	c None",
"                    c   ",
"                    ccc ",
"                   cccc ",
"                   cccc ",
"                  ccccg ",
"                  cccc  ",
"                 ccccg  ",
"                 cccc   ",
"                ccccg   ",
"                cccc    ",
"               ccccg    ",
"               cccc     ",
"              ccccg     ",
"              cccc      ",
"             ccccc      ",
"             cccc       ",
"             cccc       ",
"             ccc        "};
