/* XPM */
static char * bdigit9_xpm [] = {
"24 18 5 1",
"b	c black",
"w	c white",
"g	c gray ",
"c	c yellow ",
" 	s None	c None",
"        ccccccccccccc   ",
"      ccccccccccccccccc ",
"     cccccccccccccccccc ",
"     cccc          cccc ",
"    ccccg         ccccg ",
"    cccc          cccc  ",
"   gcccc         gcccc  ",
"   cccc          ccccg  ",
"   cccccccccccccccccc   ",
"  cccccccccccccccccc    ",
"  cccccccccccccccccc    ",
"               gcccc    ",
"               cccc     ",
"              gcccc     ",
"              cccc      ",
"              cccc      ",
"             cccc       ",
"             ccc        "};
