/* XPM */
static char * bdigit7_xpm [] = {
"24 18 5 1",
"b	c black",
"w	c white",
"g	c gray ",
"c	c yellow ",
" 	s None	c None",
"        ccccccccccccc   ",
"      ccccccccccccccccc ",
"     cccccccccccccccccc ",
"                   cccc ",
"                  ccccg ",
"                  cccc  ",
"                 gcccc  ",
"                 cccc   ",
"                 cccc   ",
"                cccc    ",
"                cccc    ",
"               gcccc    ",
"               cccc     ",
"              gcccc     ",
"              ccccg     ",
"              cccc      ",
"              cccc      ",
"             cccc       "};
