/* XPM */
static char * bdigit0_xpm [] = {
"24 18 5 1",
"b	c black",
"w	c white",
"g	c gray ",
"c	c yellow ",
" 	s None	c None",
"        ccccccccccccc   ",
"       ccccccccccccccc  ",
"     cccccccccccccccccc ",
"     cccc          cccc ",
"    ccccg         ccccg ",
"    cccc          cccc  ",
"   cccc          ccccg  ",
"   cccc          cccc   ",
"  cccc          cccc    ",
"  cccc          cccc    ",
" cccc          ccccg    ",
" cccc          cccc     ",
"ccccg         ccccg     ",
"cccc          cccc      ",
"cccc          cccc      ",
"cccccccccccccccccc      ",
"ccccccccccccccccc       ",
" ccccccccccccccc        "};
