/* XPM */
static char *btkan_xpm [] = {
"80 17 3 1",
"o 	s None	c None",
".	c gold",
"x	c DarkGoldenrod",
"oooooooooooooooooooooooooooooooooooooooooooooooooooooooooooooooooooooooooooooooo",
"ooooooooo.xooooooooooooooooooooooooooooooooooooooooooooooooooooooooooooooooooooo",
"ooooooooo.xooooooooooooooooooooooooooooooooooooooooooooooooooooooooooooooooooooo",
"ooooooooo.xooooooooo..xooooooooooooooooooooooooooooooooooooooooooooooooooooooooo",
"ooooooooo.xoooooooooo...xooooooooooooooooooooooooooooooooooooooooooooooooooooooo",
"oooo............xoooooo..xoooooooooooooooooooooooooooooooooooooooooooooooooooooo",
"ooooooooo.xoooo.xooooooooooooooo.xoooooooooooooooooooooooooooooooooooooooooooooo",
"ooooooooo.xoooo.xoooooooooooooo..xoooooooooooooooooooooooooooooooooooooooooooooo",
"oooooooo..xoooo.xooooooooooooo..xooooooooooooooooooooooooooooooooooooooooooooooo",
"oooooooo.xooooo.xoooooooooooo..xoooooooooooooooooooooooooooooooooooooooooooooooo",
"oooooooo.xooooo.xooooooooooo..xooooooooooooooooooooooooooooooooooooooooooooooooo",
"ooooooo..xooooo.xoooooooooo..xoooooooooooooooooooooooooooooooooooooooooooooooooo",
"ooooooo.xooooo..xoooooooo...xooooooooooooooooooooooooooooooooooooooooooooooooooo",
"oooooo..xooooo.xooooooo...xooooooooooooooooooooooooooooooooooooooooooooooooooooo",
"ooooo..xoooooo.xoooo....xooooooooooooooooooooooooooooooooooooooooooooooooooooooo",
"oooo..xoooo....xoooooooooooooooooooooooooooooooooooooooooooooooooooooooooooooooo",
"oooooooooooooooooooooooooooooooooooooooooooooooooooooooooooooooooooooooooooooooo",
};
