/* XPM */
static char *btpon_xpm [] = {
"80 17 3 1",
"o 	s None	c None",
".	c gold",
"x	c Darkgoldenrod",
"oooooooooooooooooooooooooooooooooooooooooooooooooooooooooooooooooooooooooooooooo",
"oooooooooooooooooooooooooooooooooooooooooooooooooooooooooooooooooooooooooooooooo",
"ooooooooo.xooooooooooooooooooooooooooooooooooooooooooooooooooooooooooooooooooooo",
"ooooooooo.xoooo..xoo..xooooooooooooooooooooooooooooooooooooooooooooooooooooooooo",
"ooooooooo.xooo.xo.xoo...xooooooooooooooooooooooooooooooooooooooooooooooooooooooo",
"ooo............xo.xoooo..xoooooooooooooooooooooooooooooooooooooooooooooooooooooo",
"ooooooooo.xoooo..xoooooooooooooo.xoooooooooooooooooooooooooooooooooooooooooooooo",
"ooooooooo.xoooooooooooooooooooo..xoooooooooooooooooooooooooooooooooooooooooooooo",
"oooooo.xo.xo.xoooooooooooooooo..xooooooooooooooooooooooooooooooooooooooooooooooo",
"oooooo.xo.xo..xoooooooooooooo..xoooooooooooooooooooooooooooooooooooooooooooooooo",
"ooooo..xo.xoo..xoooooooooooo..xooooooooooooooooooooooooooooooooooooooooooooooooo",
"ooooo.xoo.xooo.xooooooooooo..xoooooooooooooooooooooooooooooooooooooooooooooooooo",
"oooo..xoo.xooo..xoooooooo...xooooooooooooooooooooooooooooooooooooooooooooooooooo",
"ooo..xooo.xoooo.xoooooo...xooooooooooooooooooooooooooooooooooooooooooooooooooooo",
"ooooooooo.xooooooooo....xooooooooooooooooooooooooooooooooooooooooooooooooooooooo",
"ooooooo...xooooooooooooooooooooooooooooooooooooooooooooooooooooooooooooooooooooo",
"oooooooooooooooooooooooooooooooooooooooooooooooooooooooooooooooooooooooooooooooo",
};
