/* XPM */
static char *btreach_xpm [] = {
"80 17 3 1",
"o 	s None	c None",
".	c gold",
"x	c DarkGoldenrod",
"oooooooooooooooooooooooooooooooooooooooooooooooooooooooooooooooooooooooooooooooo",
"oooooooooooooooooooooooooooooooooooooooooooooooooooooooooooooooooooooooooooooooo",
"oooooo.xoooooo.xooooooooooooooooooooooooooooo..xoooooooooooooooooooooooooooooooo",
"oooooo.xoooooo.xoooooooooooooooooooooooooo....xooooooooooooooooooooooooooooooooo",
"oooooo.xoooooo.xooooooooooooooooooooo......xoooooooooooooooooooooooooooooooooooo",
"oooooo.xoooooo.xoooooooooooooooooooooooooo.xoooooooooooooooooooooooooooooooooooo",
"oooooo.xoooooo.xoooooooooooooooooooooooooo.xoooooooooooooooooooooooooooooooooooo",
"oooooo.xoooooo.xooo.xooooooooooooooooooooo.xoooooooooooooooooooooooooooooooooooo",
"oooooo.xoooooo.xoooo.............xo..............xoooooooooooooooooooooooooooooo",
"oooooo.xoooooo.xoooooooooooooooooooooooooo.xoooooooooooooooooooooooooooooooooooo",
"oooooooooooooo.xoooooooooooooooooooooooooo.xoooooooooooooooooooooooooooooooooooo",
"ooooooooooooo..xooooooooooooooooooooooooo..xoooooooooooooooooooooooooooooooooooo",
"ooooooooooooo.xoooooooooooooooooooooooooo.xooooooooooooooooooooooooooooooooooooo",
"oooooooooooo..xooooooooooooooooooooooooo..xooooooooooooooooooooooooooooooooooooo",
"ooooooooooo..xooooooooooooooooooooooooo..xoooooooooooooooooooooooooooooooooooooo",
"ooooooooo...xoooooooooooooooooooooooo...xooooooooooooooooooooooooooooooooooooooo",
"oooooooooooooooooooooooooooooooooooooooooooooooooooooooooooooooooooooooooooooooo",
};
