/* XPM */
static char *btron_xpm [] = {
"34 17 3 1",
"o 	s None	c None",
".	c gold",
"x	c DarkGoldenrod",
"oooooooooooooooooooooooooooooooooo",
"oooooooooooooooooooooooooooooooooo",
"oooooooooooooooooooooooooooooooooo",
"oooooooooooooooooooo..xooooooooooo",
"ooooo..........xooooo...xooooooooo",
"ooooo.xooooooo.xooooooo..xoooooooo",
"ooooo.xooooooo.xoooooooooooooooo.x",
"ooooo.xooooooo.xooooooooooooooo..x",
"ooooo.xooooooo.xoooooooooooooo..xo",
"ooooo.xooooooo.xooooooooooooo..xoo",
"ooooo.xooooooo.xoooooooooooo..xooo",
"ooooo.xooooooo.xooooooooooo..xoooo",
"ooooo.xooooooo.xooooooooo...xooooo",
"ooooo..........xooooooo...xooooooo",
"oooooooooooooooooooo....xooooooooo",
"oooooooooooooooooooooooooooooooooo",
"oooooooooooooooooooooooooooooooooo",
};
