/* XPM */
static char *bttie_xpm [] = {
"80 17 3 1",
"o 	s None	c None",
".	c gold",
"x	c DarkGoldenrod",
"oooooooooooooooooooooooooooooooooooooooooooooooooooooooooooooooooooooooooooooooo",
"oooooooooooooooooooooooooooooooooooooooooooooooooooooooooooooooooooooooooooooooo",
"ooooooooooooo..xoooooooooooooooooooooooooooooooooooooooooooooooooooooooooooooooo",
"oooooooooo....xooooooooooooooooooooooooooooooooooooooooooooooooooooooooooooooooo",
"ooooo......xoooooooooooooooooooooooooooooooooooooooooooooooooooooooooooooooooooo",
"oooooooooo.xoooooooooooooooooooooooooooooooooooooooooooooooooooooooooooooooooooo",
"oooooooooo.xoooooooooooooooooooooooooooooooooooooooooooooooooooooooooooooooooooo",
"oooooooooo.xooooooo.xooooooooooooooooooooooooooooooooooooooooooooooooooooooooooo",
"ooo..............xoo.............xoooooooooooooooooooooooooooooooooooooooooooooo",
"oooooooooo.xoooooooooooooooooooooooooooooooooooooooooooooooooooooooooooooooooooo",
"oooooooooo.xoooooooooooooooooooooooooooooooooooooooooooooooooooooooooooooooooooo",
"ooooooooo..xoooooooooooooooooooooooooooooooooooooooooooooooooooooooooooooooooooo",
"ooooooooo.xooooooooooooooooooooooooooooooooooooooooooooooooooooooooooooooooooooo",
"oooooooo..xooooooooooooooooooooooooooooooooooooooooooooooooooooooooooooooooooooo",
"ooooooo..xoooooooooooooooooooooooooooooooooooooooooooooooooooooooooooooooooooooo",
"ooooo...xooooooooooooooooooooooooooooooooooooooooooooooooooooooooooooooooooooooo",
"oooooooooooooooooooooooooooooooooooooooooooooooooooooooooooooooooooooooooooooooo",
};
