/* XPM */
static char * bdigit0_xpm [] = {
"24 24 5 1",
"b	c black",
"w	c white",
"g	c gray ",
"c	c yellow ",
" 	s None	c None",
"        ccccccccccccc   ",
"       ccccccccccccccc  ",
"      ccccccccccccccccc ",
"     cccccccccccccccccc ",
"     cccc          cccc ",
"    gcccc         gcccc ",
"    ccccg         ccccg ",
"    cccc          cccc  ",
"   gcccc         gcccc  ",
"   cccc          ccccg  ",
"   cccc          cccc   ",
"   cccc          cccc   ",
"  cccc          cccc    ",
"  cccc          cccc    ",
" gcccc         gcccc    ",
" cccc          ccccg    ",
" cccc          cccc     ",
"gcccc         gcccc     ",
"ccccg         ccccg     ",
"cccc          cccc      ",
"cccccccccccccccccc      ",
"cccccccccccccccccc      ",
"ccccccccccccccccc       ",
" ccccccccccccccc        "};
