/* XPM */
static char * bdigit3_xpm [] = {
"24 24 5 1",
"b	c black",
"w	c white",
"g	c gray ",
"c	c yellow ",
" 	s None	c None",
"        ccccccccccccc   ",
"       ccccccccccccccc  ",
"      ccccccccccccccccc ",
"     cccccccccccccccccc ",
"                   cccc ",
"                  gcccc ",
"                  ccccg ",
"                  cccc  ",
"                 gcccc  ",
"                 ccccg  ",
"    ccccccccccccccccc   ",
"   cccccccccccccccccc   ",
"  cccccccccccccccccc    ",
"   ccccccccccccccccc    ",
"               gcccc    ",
"               ccccg    ",
"               cccc     ",
"              gcccc     ",
"              ccccg     ",
"              cccc      ",
"cccccccccccccccccc      ",
"cccccccccccccccccc      ",
"ccccccccccccccccc       ",
" ccccccccccccccc        "};
