/* XPM */
static char * bdigit6_xpm [] = {
"24 24 5 1",
"b	c black",
"w	c white",
"g	c gray ",
"c	c yellow ",
" 	s None	c None",
"        ccccccccccccc   ",
"       ccccccccccccccc  ",
"      ccccccccccccccccc ",
"     cccccccccccccccccc ",
"     cccc               ",
"    gcccc               ",
"    ccccg               ",
"    cccc                ",
"   gcccc                ",
"   cccc                 ",
"   ccccccccccccccccc    ",
"   cccccccccccccccccc   ",
"  ccccccccccccccccccc   ",
"  cccccccccccccccccc    ",
" gcccc         gcccc    ",
" cccc          ccccg    ",
" cccc          cccc     ",
"gcccc         gcccc     ",
"ccccg         ccccg     ",
"cccc          cccc      ",
"cccccccccccccccccc      ",
"cccccccccccccccccc      ",
"ccccccccccccccccc       ",
" ccccccccccccccc        "};
