/* XPM */
static char * bdigit1_xpm [] = {
"24 24 5 1",
"b	c black",
"w	c white",
"g	c gray ",
"c	c yellow ",
" 	s None	c None",
"                   cc   ",
"                   ccc  ",
"                   cccc ",
"                   cccc ",
"                   cccc ",
"                  gcccc ",
"                  ccccg ",
"                  cccc  ",
"                 gcccc  ",
"                 ccccg  ",
"                 cccc   ",
"                gcccc   ",
"                ccccg   ",
"                cccc    ",
"               gcccc    ",
"               ccccg    ",
"               cccc     ",
"              gcccc     ",
"              ccccg     ",
"              cccc      ",
"             ccccc      ",
"             ccccc      ",
"             cccc       ",
"             ccc        "};
