/* XPM */
static char * bdigit4_xpm [] = {
"24 24 5 1",
"b	c black",
"w	c white",
"g	c gray ",
"c	c yellow ",
" 	s None	c None",
"        cccc        cc  ",
"       cccc         ccc ",
"      cccc         cccc ",
"     cccc          cccc ",
"     cccc          cccc ",
"    gcccc         gcccc ",
"    ccccg         ccccg ",
"    cccc          cccc  ",
"   gcccc         gcccc  ",
"   cccc          ccccg  ",
"   cccccccccccccccccc   ",
"   cccccccccccccccccc   ",
"  cccccccccccccccccc    ",
"  cccccccccccccccccc    ",
"               gcccc    ",
"               ccccg    ",
"               cccc     ",
"              gcccc     ",
"              ccccg     ",
"              cccc      ",
"              cccc      ",
"             ccccc      ",
"             cccc       ",
"             ccc        "};
