/* XPM */
static char * ch0_xpm[] = {
"62 17 7 1",
" 	s None	c None ",
".	c yellow        ",
"w	c white        ",
"a	c orchid      ",
"x	c VioletRed ",
"d	c DarkGoldenrod",
"g	c sienna       ",
"           wa                          ..dg           .dg     ",
"         wwwaaa                    .....dg   .dg.dg  .dg      ",
"       wwwwwaaaaa             ......dgdd     .dg.dg........dg ",
"     wwwwwwwaaaaaaa            dddd.dg       .dg.dg.dg.dg .dg ",
"   wwwwwwwwwaaaaaaaaa              .dg       .dg.dg.dg.dg .dg ",
"wwwwwwwwwwwwaaaaaaaaaaaa     ..............dg.....g........dg ",
"aaaaaaaaaaaaxxxxxxxxxxxx     dddddd.dgddddd  .dgdd .dg.dg .dg ",
"   aaaaaaaaaxxxxxxxxx              .dg       .dg   .dg.dg .dg ",
"     aaaaaaaxxxxxxx                .dg       .dg   ........dg ",
"       aaaaaxxxxx           ................g....dg  .dg.dg   ",
"         aaaxxx              dddddd.dgdddddd .dg.dg .dg .dg   ",
"           ax                      .dg       .dg.g..........dg",
"                                   .dg       .dg.dg dddd.dgddd",
"                                   .dg       .dg.dg     .dg   ",
"                                   .dg      ..dg.dg     .dg   ",
"                                 ...dg      .dg .dg     .dg   ", 
"                                 ddddg      ddg ddg     ddg   "};
