/* XPM */
static char *ch1_xpm [] = {
"62 17 7 1",
" 	s None	c None",
".	c yellow      ",
"w	c white       ",
"a	c skyblue     ",
"x	c blue        ",
"d	c DarkGoldenrod",
"g	c sienna",
"                                             .dg              ",
"           wa               .dg.....g.....dg .dg  ........dg  ",
"         wwwaaa             ..dgddd.dgddd.dg .dg  .dgdddd.dg  ",
"       wwwwwaaaaa            .g.....g.....dg .dg  .dg    .dg  ",
"     wwwwwwwaaaaaaa            .dgddd.dg   .....dg.dg    .dg  ",
"   wwwwwwwwwaaaaaaaaa          .dg .g.dg .dgd.dg  .dg    .dg  ",
"wwwwwwwwwwwwaaaaaaaaaaaa        ....dg....dg .dg  ........dg  ",
"aaaaaaaaaaaaxxxxxxxxxxxx   ...dg d.dgd.dgd   .dg  .dgd.dgddd  ",
"   aaaaaaaaaxxxxxxxxx      dd.dg..........g  ...dg.dg .dg     ",
"     aaaaaaaxxxxxxx          .dgdd.dgd.dgdd...dg  .dg .dg     ",
"       aaaaaxxxxx            .dg  .dg .dg  dd.dg  .dg ..dg    ",
"         aaaxxx              .g...........dg .dg  .dg  .dg    ",
"           ax                .dg .dg   .dg   .dg ..dg  ..dg   ",
"                            ..g..dg     ..dg .dg .dg    .dg   ",
"                            .g.dg            .dg..dg    ..dg  ",
"                           ..dg............g..gg.dg      ..dg ",
"                            ddddddggggddddddddgddd        ddg "};
