/* XPM */
static char * chipblue_xpm[] = {
"9 14 3 1",
" 	s None c None",
".	c blue",
"X	c blue4",
"         ",
"         ",
"   XXX.  ",
"  XXX... ",
" XXX.....",
" XXX.....",
" XXX.....",
" XXX.....",
" XXX.....",
" XXX.....",
" XXX.....",
"  XXX... ",
"   XXX.  ",
"         "};
/* XPM */
static char * chipblue5_xpm[] = {
"9 14 3 1",
" 	s None c None",
".	c blue",
"X	c blue4",
"  XXXX.  ",
" XXXX... ",
"XXXX.....",
"XXXX.....",
"XXXX.....",
"XXXX.....",
"XXXX.....",
"XXXX.....",
"XXXX.....",
"XXXX.....",
"XXXX.....",
" XXXX... ",
"  XXXX.  ",
"         "};
