/* XPM */
static char * chipred_xpm[] = {
"9 14 3 1",
" 	s None c None",
".	c red",
"X	c red4",
"         ",
"         ",
"   .XXX  ",
"  ...XXX ",
" .....XXX",
" .....XXX",
" .....XXX",
" .....XXX",
" .....XXX",
" .....XXX",
" .....XXX",
"  ...XXX ",
"   .XXX  ",
"         "};
/* XPM */
static char * chipred5_xpm[] = {
"9 14 3 1",
" 	s None c None",
".	c red",
"X	c red4",
"  .XXXX  ",
" ...XXXX ",
".....XXXX",
".....XXXX",
".....XXXX",
".....XXXX",
".....XXXX",
".....XXXX",
".....XXXX",
".....XXXX",
".....XXXX",
" ...XXXX ",
"  .XXXX  ",
"         "};
