/* XPM */
static char * connect_xpm[] = {
"24 24 4 1",
" 	s None c None",
".	c #FFFF0000FFFF",
"X	c #FFFFAEAE6161",
"o	c yellow",
"                        ",
"                        ",
"        ......          ",
"      ..ooooo ..        ",
"     .          .       ",
"    .    XXXX    .      ",
"   .    X    X    .     ",
"   .   X      X   .     ",
"  .   X        X   .    ",
"  .   X        X   .    ",
"  .   X        X   .    ",
"  .   X        X   .    ",
"  .   X        X   .    ",
"  .    X      X    .    ",
"   .    X    X    .     ",
"   .     XXXX     .     ",
"    .            .      ",
"     .          .       ",
"      ..ooooo ..        ",
"        ......          ",
"                        ",
"                        ",
"                        ",
"                        "};
