/* XPM */
static char *digit5_xpm[] = {
/* width height num_colors chars_per_pixel */
"    24    24        3            1",
/* colors */
"# c #808080",
". c #dddddd",
"a s None c None",
/* pixels */
"aaaaaaaaaaaaaaaaaaaaaaaa",
"aaaaaaaaaaaaaaaaaaaaaaaa",
"aaaaaaaaaaaaaaaaaaaaaaaa",
"aaaaaaaaaaaaaaaaaaaaaaaa",
"aaaa...................#",
"aaa.......##..##......#a",
"aaaaaaaaaaaa.#aaaaaaaaaa",
"aaaaaaaaaaaa.#aaaaaaaaaa",
"aaaaaaaaaaa.#aaaaaaaaaaa",
"aaaaaaaaaaa.#aaaaaaaaaaa",
"aaaaaaaaaa..#aaaaaaaaaaa",
"aaaaa.............aaaaaa",
"aaaaaaaaa...###...aaaaaa",
"aaaaaaaaa..#aaaa..aaaaaa",
"aaaaaaaa...#aaaa..aaaaaa",
"aaaaaaaa..#aaaaa..aaaaaa",
"aaaaaaaa..#aaaa..#aaaaaa",
"aaaaaaa..#aaaaa..#aaaaaa",
"aaaaaa...#aaaa...#aaaaaa",
"aaaaa..................a",
"a.......................",
".....###############....",
".#####aaaaaaaaaaaaaa####",
"aaaaaaaaaaaaaaaaaaaaaaaa"
};
