/* XPM */
static char *digit0_xpm[] = {
/* width height num_colors chars_per_pixel */
"    24    24        3            1",
/* colors */
". c #dddddd",
"a c #808080",
"# s None c None",
/* pixels */
"########################",
"########################",
"########################",
"#####................a##",
"#####...............a###",
"#######aaaaa.aaaaaaa####",
"#......................a",
"#..aa.....aa.a.....aa..a",
"#..a#.....a#.#.....a#..a",
"#..a##aaaaa#.##aaaaa#..a",
"#..a#.....a#.#.....a#aa#",
"#aaa#.....a#.#.....a####",
"######aaaaa...#aaaaa####",
"#########...a...########",
"######....a###.....#####",
"###.....a.......#......#",
"#.....a#.......####....#",
"#aaa...............a####",
"##########.a#####.a#####",
"##########.a####..a#####",
"##########.a#.....a#####",
"##########.a##aaaa######",
"##########.a############",
"##########a#############"
};
