/* XPM */
static char *digit10_xpm[] = {
/* width height num_colors chars_per_pixel */
"    24    24        3            1",
/* colors */
"# c #808080",
". c #dddddd",
"a s None c None",
/* pixels */
"aaaaaaaaaaaaaaaaaaaaaaaa",
"aaaaaaaaaaaaaaaaaaaaaaaa",
"aaaaaaaaaaa..aaaaaaaaaaa",
"aaaaaaaaaaa..#aaaaaaaaaa",
"aaaaaaaaaaaa.#aaaaaaaaaa",
"aaaaaaaaaaaa.#aaaaaaaaaa",
"aaaaaaaaaaaa.#aaaaaaaaaa",
"aaaaaaaaaaaa.#aaaaaaaaaa",
"aaaaaaaaaaaa.#aaaaaaaaaa",
"aaaaaaaaaaaa.#aaaaaaaaaa",
"a.......................",
"a.......................",
"a####aaaaaaa.#aaaaaaa###",
"aaaaaaaaaaaa.#aaaaaaaaaa",
"aaaaaaaaaaaa.#aaaaaaaaaa",
"aaaaaaaaaaaa.#aaaaaaaaaa",
"aaaaaaaaaaaa.#aaaaaaaaaa",
"aaaaaaaaaaaa.#aaaaaaaaaa",
"aaaaaaaaaaaa.#aaaaaaaaaa",
"aaaaaaaaaaaa.#aaaaaaaaaa",
"aaaaaaaaaaaa.#aaaaaaaaaa",
"aaaaaaaaaaaa.#aaaaaaaaaa",
"aaaaaaaaaaaa.#aaaaaaaaaa",
"aaaaaaaaaaaa.#aaaaaaaaaa"
};
