/* XPM */
static char * disconne_xpm[] = {
"24 24 2 1",
" 	c #000000000000",
".	c #FFFF00000000",
"                        ",
"                        ",
"  ...                   ",
"   ...             ..   ",
"    ...           ...   ",
"     ...         ...    ",
"      ...       ...     ",
"       ...     ...      ",
"        ...   ...       ",
"         ... ...        ",
"          .....         ",
"           ...          ",
"          .....         ",
"         ... ...        ",
"        ...   ...       ",
"       ...     ...      ",
"      ...       ...     ",
"     ...         ...    ",
"    ...           ...   ",
"   ...             ...  ",
"  ...               ... ",
"                     .  ",
"                        ",
"                        "};
