/* XPM */
static char * dorastr_xpm[] = {
"24 24 3 1",
" 	s None	c None",
".	c DarkSeaGreen",
"x	c MediumSeaGreen",
"         ...x           ",
"         ...x   ..      ",
"         ...x    x...x  ",
"         ...x   ..xxxx  ",
"         ....x   x...x  ",
"         .....x   xxxx  ",
"         .... ..x       ",
"         ...x  ...x     ",
"         ...x   ..x     ",
"         ...x    x      ",
"         ...x           ",
"         ...x           ",
"                        ",
"  ....................x ",
"  xxxxxxxxxxxxxxxxxxxxx ",
"                        ",
"  ...................x  ",
"  xxxxxxxxxxxxxxx...x   ",
"                ...x    ",
"               ...x     ",
"              ...x      ",
"             ...x       ",
"           ...x         ",
"          ...x          "};
