/* XPM */
static char * failconn_xpm[] = {
"68 18 3 1",
".	c darkorange",
"X	s None c None",
"o	c yellow",
"XXXXXXXXXXXXXXXXXXXXXXXXXXXXXXXXXXXXXXXXXXXXXXXXXXXXXXXXXXXXXXXXXXXX",
"XXXXo.XXXXXXo.XXXXXXXo.XXXXXXo.XXXXXXXXXXo.XXXXXXXXXXXXXXXXo.XXXXXXX",
"XXXXo.XXXXXXo.XXXXXXoo.XXXXXXo.XXXXXXo.XXo.XXXXXXXXooooo.XXo.XXXXXXX",
"XXXXo.XXooooooooo.Xoo.XXXooooooooo.XXo.XXo.XXXXXXXXo.XXo.XXo.XXXXXXX",
"XXXXo.XXXo.XXXXo.Xoo.XXo.XXXXo.XXXXXoooooooooooo.XXo.XXo.Xoooooooo.X",
"XXooooo.Xoo.XXoo.XXoo.oo.XXXXo.XXXXXo.XXXo.XXXXXXXXooooo.Xo.XXXo.XXX",
"XXXXo.XXXXo.XXo.XXXXXoo.XXooooooo.Xoo.XXXo.XXXXXXXXo.XXo.oo.XXXo.XXX",
"XXXXo.Xooooooooooo.Xoo.XXXXXXXXXXXXXXXXXXo.XXXXXXXXo.XXo.XXo.XXo.XXX",
"XXXXo.XXXXXo.XXXXXXoo.Xo.ooooooooo.XXXXXXo.XXXXXXXXo.XXo.XXoo.oo.XXX",
"XXXXooo.XXXo.XXXXXoooooo.o.XXXXXXooooooooooooooooo.ooooo.XXXo.o.XXXX",
"XXooo.Xooooooooooo.XXo.o.o.o.Xo.Xo.XXXXXo.Xo.XXXXXXo.XXo.XXXooo.XXXX",
"XXXXo.XXXXo.XXXo.XXXXo.XXXXo.Xo.XXXXXXXoo.Xoo.XXXXXo.XXo.XXXXo.XXXXX",
"XXXXo.XXXo.XXXoo.XXo.o.o.XXo.Xo.XXXXXXXo.XXXo.XXXXXo.XXo.XXXooo.XXXX",
"XXXXo.XXoooo.oo.XXXo.o.oo.Xo.Xo.XXXXXXoo.XXXoo.XXXXooooo.XXXo.o.XXXX",
"XXXXo.XXXXXooo.XXXoo.o.Xo.oo.Xo.Xo.XXoo.XXXXXoo.XXXXo.o.XXXoo.oo.XXX",
"XXXXo.XXXooo.Xooo.o.Xo.XXXo.XXo.Xo.Xoo.XXXXXXXoo.XXoo.oo.Xoo.XXoo.XX",
"XXXoo.Xooo.XXXXXoo.XXo.XXoo.XXXoooooo.XXXXXXXXXooooo.XXo.oo.XXXXoo.X",
"XXXXXXXXXXXXXXXXXXXXXXXXXXXXXXXXXXXXXXXXXXXXXXXXXXXXXXXXXXXXXXXXXXXX",
};
