/* XPM */
static char * fusfx_xpm[] = {
"20 18 2 1",
"X 	s None	c None ",
"o	c yellow        ",
"XXXXXXXXXXXXXXXXXXXX",
"XXXXXoXXXXXoXXXXXXXX",
"XXXXXoXXXXXoXXXXXXXX",
"XXXXoooooXooooooooXX",
"XXXooXoXXXoXoXXXXXXX",
"XXooXXXoXoXXXoXXXXXX",
"XXXXXXXXXXXXXXXXXXXX",
"XXXXXXoXXXXXXXoXXXXX",
"XXXXXooXXXXXXXoXXXXX",
"XXXXooXoooooooooooXX",
"XXXoooXXXXXXXXoXXXXX",
"XXooXoXXooXXXXoXXXXX",
"XXXXXoXXXooXXXoXXXXX",
"XXXXXoXXXXoXXXoXXXXX",
"XXXXXoXXXXXXXXoXXXXX",
"XXXXXoXXXXXXXXoXXXXX",
"XXXXXoXXXXXXoooXXXXX",
"XXXXXXXXXXXXXXXXXXXX"};
