/* XPM */
static char * gameendh_xpm[] = {
"38 21 6 1",
"X 	s None	c None ",
"o	c yellow        ",
"s	c sienna        ",
"l	c gray ",
"b	c black ",
"w	c white ",
"wwwwwwwwwwwwwwwwwwwwwwwwwwwwwwwwwwwwwX",
"wllllllllllllllllllllllllllllllllllllb",
"wlXXXXosXXXXXosXXXXXXosXXXXXosXXXXXllb",
"wlXXXXososXXXosXXXXXXosXXXXXosXXXXXllb",
"wlXosXosoooooooooosXoooooosoooooooollb",
"wlXoosososXXXosXXXXXosXosXosXosXXXXllb",
"wlXXososXXooooooosXosXXXosXXXXosXXXllb",
"wlXXXXosXXXXXosXXXXXXXoooooooooosXXllb",
"wlXoooooooooooooooosXXosXXXXXXXosXXllb",
"wlXXXXosXXXXXXXXXXXXXXoooooooooosXXllb",
"wlXXXooosXooooooosXXXXosXXXXXXXosXXllb",
"wlXXXoosososXXXXosXXXXoooooooooosXXllb",
"wlXXosososooooooosXXXXosXXXXXXXosXXllb",
"wlXXososXXosXXXXosXXXXoooooooooosXXllb",
"wlXosXosXXooooooosXXXXXXosXXXosXXXXllb",
"wlXXXXosXXosXXXXosXoooooooooooooooollb",
"wlXXXXosXXosXXXXosXXXXXosXXXXosXXXXllb",
"wlXXXXosXXosXXooosXXXoosXXXXXosXXXXllb",
"wllllllllllllllllllllllllllllllllllllb",
"wllllllllllllllllllllllllllllllllllllb",
"Xbbbbbbbbbbbbbbbbbbbbbbbbbbbbbbbbbbbbb",
};
