/* XPM */
static char * homesya_xpm[] = {
"35 18 3 1",
"X 	s None	c None",
"o	c yellow",
"g	c gold",
"XXXXXXXXXXXXXXXXXXXXXXXXXXXXXXXXXXX",
"XXXXXXXXXXXXXXXXXXXXXXXXXogXXXXXXXX",
"XXoooooooooooooooogXXXXXXogXXXXXXXX",
"XXXXXXXogXXogXXXXXXoooooooooooooogX",
"XXXXXXXogXXogXXXXXXogXXXXXXXXXXXogX",
"XXXXXXXogXXogXXXXXXogXXXXXXXXXXXogX",
"XXXoooooooooooooogXXXoooooooooogXXX",
"XXXogXXogXXogXXXogXXXXXXogXXXXXXXXX",
"XXXogXXogXXogXXXogXXXXoogogXXXXoogX",
"XXXogXoogXXogXXXogXooogXXoogXXoogXX",
"XXXogoogXXXoogXXogXXXXXoogogXoogXXX",
"XXXooogXXXXXooooogXXXooogXoogXXXXXX",
"XXXogXXXXXXXXXXXogXooogXXoooogXXXXX",
"XXXogXXXXXXXXXXXogXXXXXoogogoogXXXX",
"XXXogXXXXXXXXXXXogXXXooogXogXooogXX",
"XXXoooooooooooooogoooogXXoogXXXooog",
"XXXXXXXXXXXXXXXXXXXXXXXooogXXXXXXXX",
"XXXXXXXXXXXXXXXXXXXXXXXXXXXXXXXXXXX",
};
