/* XPM */
static char * homepei_xpm[] = {
"35 18 3 1",
"X 	s None	c None",
"o	c yellow",
"g	c gold",
"XXXXXXXXXXXXXXXXXXXXXXXXXXXXXXXXXXX",
"XXXXXXXogXXogXXXXXXXXXXXXogXXXXXXXX",
"XXXXXXXogXXogXXXXXXXXXXXXogXXXXXXXX",
"XXXXXXXogXXogXXXXXXoooooooooooooogX",
"XXXXXXXogXXogXXoogXogXXXXXXXXXXXogX",
"XXoooooogXXogooogXXogXXXXXXXXXXXogX",
"XXXXXXXogXXooogXXXXXXoooooooooogXXX",
"XXXXXXXogXXogXXXXXXXXXXXogXXXXXXXXX",
"XXXXXXXogXXogXXXXXXXXXoogogXXXXoogX",
"XXXXXXXogXXogXXXXXXooogXXoogXXoogXX",
"XXXXXXXogXXogXXXXXXXXXXoogogXoogXXX",
"XXXXXXXogXXogXXXXXXXXooogXoogXXXXXX",
"XXXXXooogXXogXXXXXXooogXXoooogXXXXX",
"XXXooogogXXogXXXXogXXXXoogogoogXXXX",
"XXoogXXogXXoogXXoogXXooogXogXooogXX",
"XXXXXXXogXXXooooogoooogXXoogXXXooog",
"XXXXXXXogXXXXXXXXXXXXXXooogXXXXXXXX",
"XXXXXXXXXXXXXXXXXXXXXXXXXXXXXXXXXXX",
};
