/* XPM */
static char * homenan_xpm[] = {
"35 18 3 1",
"X 	s None	c None",
"o	c yellow",
"g	c gold",
"XXXXXXXXXXXXXXXXXXXXXXXXXXXXXXXXXXX",
"XXXXXXXXXogXXXXXXXXXXXXXXogXXXXXXXX",
"XXXXXXXXXogXXXXXXXXXXXXXXogXXXXXXXX",
"XXoooooooooooooooogoooooooooooooogX",
"XXXXXXXXXogXXXXXXXXogXXXXXXXXXXXogX",
"XXXXXXXXXogXXXXXXXXogXXXXXXXXXXXogX",
"XXXoooooooooooooogXXXoooooooooogXXX",
"XXXogXXogXXXogXXogXXXXXXogXXXXXXXXX",
"XXXogXXXogXogXXXogXXXXoogogXXXXoogX",
"XXXogXoooooooogXogXooogXXoogXXoogXX",
"XXXogXXXXogXXXXXogXXXXXoogogXoogXXX",
"XXXogXXXXogXXXXXogXXXooogXoogXXXXXX",
"XXXogoooooooooogogXooogXXoooogXXXXX",
"XXXogXXXXogXXXXXogXXXXXoogogoogXXXX",
"XXXogXXXXogXXXXXogXXXooogXogXooogXX",
"XXXogXXXXogXXXXXogoooogXXoogXXXooog",
"XXXogXXXXogXXXooogXXXXXooogXXXXXXXX",
"XXXXXXXXXXXXXXXXXXXXXXXXXXXXXXXXXXX"};
