/* XPM */
static char * hometon_xpm[] = {
"35 18 3 1",
"X 	s None	c None",
"o	c yellow",
"g	c gold",
"XXXXXXXXXXXXXXXXXXXXXXXXXXXXXXXXXXX",
"XXXXXXXXXogXXXXXXXXXXXXXXogXXXXXXXX",
"XXXXXXXXXogXXXXXXXXXXXXXXogXXXXXXXX",
"XXoooooooooooooooogoooooooooooooogX",
"XXXXXXXXXogXXXXXXXXogXXXXXXXXXXXogX",
"XXXXoooooooooooogXXogXXXXXXXXXXXogX",
"XXXXogXXXogXXXXogXXXXoooooooooogXXX",
"XXXXoooooooooooogXXXXXXXogXXXXXXXXX",
"XXXXogXXXogXXXXogXXXXXoogogXXXXoogX",
"XXXXogXXXogXXXXogXXooogXXoogXXoogXX",
"XXXXoooooooooooogXXXXXXoogogXoogXXX",
"XXXXXXXogogogXXXXXXXXooogXoogXXXXXX",
"XXXXXXoogogoogXXXXXooogXXoooogXXXXX",
"XXXXXoogXogXoogXXXXXXXXoogogoogXXXX",
"XXXXoogXXogXXooogXXXXooogXogXooogXX",
"XXooogXXXogXXXXooooooogXXoogXXXooog",
"XXXXXXXXXogXXXXXXXXXXXXooogXXXXXXXX",
"XXXXXXXXXXXXXXXXXXXXXXXXXXXXXXXXXXX",
};
