/* XPM */
static char * hon_xpm[] = {
"24 24 2 1",
" 	s None	c None",
".	c #000000000000",
"           ..           ",
"           ..           ",
"           ..           ",
"           ..           ",
"           ..           ",
"           ..           ",
"....................... ",
"          ....          ",
"         ......         ",
"        .. .. ..        ",
"       ..  ..  ..       ",
"       ..  ..  ..       ",
"      ..   ..  ..       ",
"      ..   ..  ..       ",
"      ..   ..   ..      ",
"     ..    ..   ..      ",
"     ..    ..   ..      ",
"     ..    ..    ..     ",
"    ..     ..     ..    ",
"   ...  .........  ..   ",
"  ..       ..       ..  ",
"..         ..        .. ",
"           ..           ",
"           ..           "};
