/* XPM */
static char *ie_xpm[] = {
/* width height num_colors chars_per_pixel */
"    24    24        3            1",
/* colors */
". c #dddddd",
"# c #808080",
"a s None c None",
/* pixels */
"aaaaaaaaaaaaaaaaaaaaaaaa",
"aaaaaaaaaaa..#aaaaaaaaaa",
"aaaaaaaaaaaa.#aaaaaaaaaa",
"aaaaaaaaaaaa.#aaaaaaaaaa",
"aaaaaa................#a",
"aaa...................#a",
"aa...#aaaaaaaaaaaaaaa..#",
"aa..##.............#a..#",
"aa..#a............#aa..#",
"aa..#a#####.######aaa.#a",
"aa##aaaaa...aaaaaaa.aaaa",
"aaaaaaa...#.aaaaaa...#aa",
"aaa....##.....#...###aaa",
"aaaa.#aa...a....##aaaaaa",
"aaaaaa...##a...#aaaaaaaa",
"aaaa....aaa.....#aaaaaaa",
"a.....##a.....#..#aaaaaa",
"a....#aa...#..#...aaaaaa",
"aaaaa.....aa..#aa...#aaa",
"aaa....##aaa..#aaa....#a",
"......aaaaa..#aaaa......",
"a...#aaaa...#aaaaaa.....",
"aaaaaa......aaaaaaaa####",
"aaaaaaa....#aaaaaaaaaaaa"
};
