/* XPM */
static char * kyoku_xpm[] = {
"24 24 3 1",
" 	s None	c None",
".	c DarkSeaGreen",
"x	c MediumSeaGreen",
"                        ",
"                        ",
"                  ...x  ",
"    .................x  ",
"    ...xxxxxxxxxxxx..x  ",
"    ..x            ..x  ",
"    ..x            ..x  ",
"    .................x  ",
"   ..xxxxxxxxxxxxxxxxx  ",
"   ..x                  ",
"   ..x                  ",
"   ....................x",
"   ..xxxxxxxxxxxxxxxx..x",
"   ..x               ..x",
"  ..x  .........x    ..x",
"  ..x  ..xxxxx..x    ..x",
"  ..x  ..x    ..x    ..x",
" ..x   ..x    ..x   ..x ",
" ..x   .........x   ..x ",
" ..x    xxxxxxxxx ....x ",
"..x               ....x ",
"..x                ...x ",
"..x                 ..x ",
"                    ..x "};
