/* XPM */
static char * mark3_xpm[] = {
"16 16 3 1",
" 	s None  c None ",
".	c #BEFB0C3030C2",
"#	c white",
"                ",
"     ......     ",
"    ........    ",
"   ....##....   ",
"  ....####....  ",
" .....####..... ",
" .....####..... ",
" ......##...... ",
" ......##...... ",
" .............. ",
"  .....##.....  ",
"   ...####...   ",
"    ...##...    ",
"     ......     ",
"                ",
"                "};
