/* XPM */
static char *msgkan_xpm [] = {
"34 17 3 1",
"o 	s None	c None",
".	c darkorange",
"x	c DarkGoldenrod",
"oooooooooooooooooooooooooooooooooo",
"ooooooooo.xooooooooooooooooooooooo",
"ooooooooo.xooooooooooooooooooooooo",
"ooooooooo.xooooooooo..xooooooooooo",
"ooooooooo.xoooooooooo...xooooooooo",
"oooo............xoooooo..xoooooooo",
"ooooooooo.xoooo.xooooooooooooooo.x",
"ooooooooo.xoooo.xoooooooooooooo..x",
"oooooooo..xoooo.xooooooooooooo..xo",
"oooooooo.xooooo.xoooooooooooo..xoo",
"oooooooo.xooooo.xooooooooooo..xooo",
"ooooooo..xooooo.xoooooooooo..xoooo",
"ooooooo.xooooo..xoooooooo...xooooo",
"oooooo..xooooo.xooooooo...xooooooo",
"ooooo..xoooooo.xoooo....xooooooooo",
"oooo..xoooo....xoooooooooooooooooo",
"oooooooooooooooooooooooooooooooooo",
};
