/* XPM */
static char *msgpon_xpm [] = {
"34 17 3 1",
"o 	s None	c None",
".	c darkorange",
"x	c Darkgoldenrod",
"oooooooooooooooooooooooooooooooooo",
"oooooooooooooooooooooooooooooooooo",
"ooooooooo.xooooooooooooooooooooooo",
"ooooooooo.xoooo..xoo..xooooooooooo",
"ooooooooo.xooo.xo.xoo...xooooooooo",
"ooo............xo.xoooo..xoooooooo",
"ooooooooo.xoooo..xoooooooooooooo.x",
"ooooooooo.xoooooooooooooooooooo..x",
"oooooo.xo.xo.xoooooooooooooooo..xo",
"oooooo.xo.xo..xoooooooooooooo..xoo",
"ooooo..xo.xoo..xoooooooooooo..xooo",
"ooooo.xoo.xooo.xooooooooooo..xoooo",
"oooo..xoo.xooo..xoooooooo...xooooo",
"ooo..xooo.xoooo.xoooooo...xooooooo",
"ooooooooo.xooooooooo....xooooooooo",
"ooooooo...xooooooooooooooooooooooo",
"oooooooooooooooooooooooooooooooooo",
};
