/* XPM */
static char *msgtie_xpm [] = {
"34 17 3 1",
"o 	s None	c None",
".	c darkorange",
"x	c DarkGoldenrod",
"oooooooooooooooooooooooooooooooooo",
"oooooooooooooooooooooooooooooooooo",
"ooooooooooooo..xoooooooooooooooooo",
"oooooooooo....xooooooooooooooooooo",
"ooooo......xoooooooooooooooooooooo",
"oooooooooo.xoooooooooooooooooooooo",
"oooooooooo.xoooooooooooooooooooooo",
"oooooooooo.xooooooo.xooooooooooooo",
"ooo..............xoo.............x",
"oooooooooo.xoooooooooooooooooooooo",
"oooooooooo.xoooooooooooooooooooooo",
"ooooooooo..xoooooooooooooooooooooo",
"ooooooooo.xooooooooooooooooooooooo",
"oooooooo..xooooooooooooooooooooooo",
"ooooooo..xoooooooooooooooooooooooo",
"ooooo...xooooooooooooooooooooooooo",
"oooooooooooooooooooooooooooooooooo",
};
