/* XPM */
static char * msgtumo_xpm[] = {
"34 17 3 1",
"o 	s None	c None",
".	c red",
"x	c HotPink",
"oooooooooooooooooooooooooooooooooo",
"oooooooooooooooooooooooooooooooooo",
"oooooooooooooooooooooooooooooooooo",
"ooooooo.xooooooooooo...........xoo",
"ooo.xoo..xoooooo.xoooooo.xoooooooo",
"ooo..xoo.xoooooo.xoooooo.xoooooooo",
"oooo.xoo..xoooo..xoooooo.xoooooooo",
"oooo..xoo.xoooo.xooooooo.xoooooooo",
"ooooo.xooooooo..xoo.............xo",
"oooooooooooooo.xoooooooo.xoooooooo",
"ooooooooooooo..xoooooooo.xoooooooo",
"oooooooooooo..xooooooooo.xoooooooo",
"ooooooooooo..xoooooooooo.xoooooooo",
"oooooooooo..xooooooooooo..xooooooo",
"oooooooo...xooooooooooooo.......xo",
"oooooo...xoooooooooooooooooooooooo", 
"oooooooooooooooooooooooooooooooooo",
};
