/* XPM */
static char * n1hon_xpm[] = {
"24 24 3 1",
" 	s None	c None",
".	c #000000000000",
"w	c #FFFFFFFFFFFF",
"                        ",
"                        ",
"                        ",
"                        ",
" ...................... ",
".wwwwwww.w.w.w.w.wwwwww.",
".wwwwwww.w.w.w.w.wwwwww.",
" ...................... ",
"                        ",
"                        ",
"                        ",
"                        ",
"                        ",
"                        ",
"                        ",
"                        ",
"                        ",
"                        ",
"                        ",
"                        ",
"                        ",
"                        ",
"                        ",
"                        "};
