/* XPM */
static char * num1_xpm[] = {
"53 72 14 1",
" 	c None s None  ",
".	c #FFFFE8E8CCCC",
"X	c #FFFFB0B05151",
"o	c #FFFFA3A33333",
"O	c #FFFF8C8C0000",
"+	c #FFFFD1D19999",
"@	c #FFFFDADAADAD",
"#	c #FFFF9E9E2828",
"$	c #FFFFA7A73D3D",
"%	c #FFFFECECD6D6",
"&	c #FFFFBABA6666",
"*	c #FFFFC3C37A7A",
"=	c #FFFFFAFAF4F4",
"-	c #FFFFF1F1E0E0",
"                                                     ",
"                                                     ",
"                        ..........XXXXX              ",
"                       ........XXXXXoooo             ",
"                      .......XXXXXooooooo            ",
"                     ......XXXXXOOOooooooo           ",
"                    .....XXXXOOOOOOOOoooooo          ",
"                   ....++XXOOOOOOOOOOOooooo@         ",
"                  ...+XXXXOOOOOOOOOOOOOoooo@         ",
"                  ...+XXXOOOOOOOOOOOOOOoooo@         ",
"                  ...XXXXOOOOOOOOOOOOOOooo@@         ",
"                  ...++XXOOOOOOOOOOOOOOooo@@         ",
"                    ..+++OOOOOOOOOOOOOOoo@@          ",
"                      +++OOOOOOOOOOOOOOoo@@          ",
"                       +++OOOOOOOOOOOOOo@@@          ",
"                       ++++OOOOOOOOOOOOo@@           ",
"                       +++++OOOOOOOOOOOo@@           ",
"                       .++++OOOOOOOOOO#@@            ",
"                       .++++OOOOOOOOOO#@@            ",
"                       .++++OOOOOOOOOO#@             ",
"                      ..+++OOOOOOOOOO##@             ",
"                      ..+++OOOOOOOOOO##.             ",
"                     ...++OOOOOOOOOO##@              ",
"                     ...++OOOOOOOOOO##.              ",
"                    ....+OOOOOOOOOO###.              ",
"                    ....+OOOOOOOOOO##..              ",
"                    ....XOOOOOOOOOO##..              ",
"                   ....+OOOOOOOOOO##...              ",
"                   ....XOOOOOOOOOO##...              ",
"                   ....XOOOOOOOOOO#....              ",
"                   ...XXOOOOOOOOOO#....              ",
"                   ...XXOOOOOOOOOO#....              ",
"                   ..XXOOOOOOOOOOO.....              ",
"                   ..XXOOOOOOOOOOO.....              ",
"                   .XXXOOOOOOOOOOO.....              ",
"                   .XXOOOOOOOOOOOO.....              ",
"                   .XXOOOOOOOOOOOO.....              ",
"                   XXOOOOOOOOOOOO+....               ",
"                   XXOOOOOOOOOOOO+....               ",
"                   XOOOOOOOOOOOOO+....               ",
"                   XOOOOOOOOOOOO++...                ",
"                   XOOOOOOOOOOOO++...                ",
"                  @OOOOOOOOOOOO+++..                 ",
"                  @OOOOOOOOOOOO+++..                 ",
"                  @OOOOOOOOOOO++++.                  ",
"                 @@OOOOOOOOOOO++++.                  ",
"                 @@OOOOOOOOOO$++++%                  ",
"                @@oOOOOOOOOOO++++.                   ",
"                @@oOOOOOOOOO$++++%                   ",
"               @@@oOOOOOOOOO$++++%                   ",
"               @@ooOOOOOOOO$$+++%%                   ",
"               @@ooOOOOOOOO$$+++%%                   ",
"              @@oooOOOOOOO$$&++%%                    ",
"              @@oooOOOOOOO$$&++%%                    ",
"              @ooooOOOOOO$$$&+%%%                    ",
"              @ooooOOOOOO$$&&+%%                     ",
"              XooooOOOOOO$$&&+%%                     ",
"             @ooooOOOOOOO$$&&*%%                     ",
"            .XooooOOOOOOO$$&&*%%=                    ",
"           ..XooooOOOOOOO$$&&*%%=                    ",
"          ..XXoooOOOOOOOOO$&&**%==                   ",
"         ..&XXoooOOOOOOOOO&&&**%==                   ",
"         ..&XXXooOOOOOOOOO&&&&**-==                  ",
"        ..&&&XXXooOOOOOOO&&&&&**-==                  ",
"       ..&&&&XXXXoOOOOOOO&&&&&***-==                 ",
"      ..&&&&&&XXXXoOOOOO&&&&&&&**--==                ",
"      ..&&&&&&&XXXXoOOO&&&&&&&&**--==                ",
"      ..&&&&&&&&&&&&&&&&&&&&&&&**--==                ",
"      ..&&&&&&&&&&&&&&&&&&&&&&**---==                ",
"       ..&&&&&&&&&&&&&&&&&&&&&*---==                 ",
"        .&&&&&&&&&&&&&&&&&&&&*----=                  ",
"         .&&&&&&&&&&&&&&&&&&*----=                   "};
