/* XPM */
static char * num2_xpm[] = {
"53 72 19 1",
" 	s None c None",
".	c #FFFFECECD6D6",
"X	c #FFFFA3A33333",
"o	c #FFFFB5B55B5B",
"O	c #FFFFBABA6666",
"+	c #FFFFF1F1E0E0",
"@	c #FFFFB0B05151",
"#	c #FFFF95951414",
"$	c #FFFF8C8C0000",
"%	c #FFFFDCDCB2B2",
"&	c #FFFFE3E3C1C1",
"*	c #FFFFD5D5A3A3",
"=	c #FFFFF5F5EAEA",
"-	c #FFFF9E9E2828",
";	c #FFFFC7C78484",
":	c #FFFFC3C37A7A",
"?	c #FFFFFAFAF4F4",
">	c #FFFFDADAADAD",
",	c #FFFF99991E1E",
"                                                     ",
"                        .....XXXXXooooo              ",
"                     .....XXXXXXXXXXXoooOO           ",
"                   +....XXXXXXXXXXXXXXoooOO          ",
"                 +....XXXXXXXXXXXXXXXXXoooOO         ",
"               ++...XXXXXXXXXXXXXXXXXXXXoooOO        ",
"              ++..O@XXXXXXXXXXXXXXX####XXoooOO       ",
"             ++..O@@XXXXXXXXXXXXXX######XXooOOO      ",
"            ++.OOO@@XXXXXXXXXXXXXX#######XXoOOOO     ",
"           ++.OOO@@@@XXXXXXXXXXXX#####$$$#XoOOOO%    ",
"          ++.OOOO@@@@@XXXXXXXXXXX#####$$$$#oOOOOO    ",
"         +++&OOOO@@@@@@@*****XXXX####$$$$$$#OOOOOO   ",
"         ++&&&OOOOO@@&=   ****XXX####$$$$$$#OOOOOO   ",
"         ++&&&OOOOO&==      ***XXX####$$$$$#OOOOOO   ",
"         ++&&&&&&&===        ***XXX###$$$$$#OOOOOO%  ",
"         =+&&&&&&===          ***XXX##$$$$$#OOOOOO%  ",
"          ==+&&&==             ***XX########OOOOOO%  ",
"           ======               **XXX#######OOOOOO%  ",
"            ====                +*XXXX#####XOOOOOO   ",
"                                 *XXXX####-XOOOOOO   ",
"                                 *XXXXXXXXXXOOOOOO   ",
"                                 +XXXXXXXXXXOOOOO    ",
"                                 +XXXXXXXXXXOOOO%    ",
"                                 +XXXXXXXXXXOOOO     ",
"                                ++XXXXXXXXXXOOO      ",
"                                ++XXXXXXXXXXOO;      ",
"                               ++OXXXXXXXXXOOO       ",
"                               ++OXXXXXXXXXOO;       ",
"                              +++OXXXXXXXXXO;        ",
"                              ++OOXXXXXXXXO;;        ",
"                             ++&OOOXXXXXXO;;         ",
"                             ++OOOOXXXXXO:;;         ",
"                            ++&OOOOOXXXO:;;          ",
"                            +&:OOOOOOOO:;;;          ",
"                           +&&:OOOOOOO::;;           ",
"                          +&&::OOOOOO::;;?           ",
"                          .&&::OOOOO:::;;            ",
"                         .&&::::OO::::;;?            ",
"                        .&&&::::::::::;?             ",
"                       ..&&::::::::::;??             ",
"                      ..&&;:::::::::;??              ",
"                     ...&&;::::::::;??               ",
"                    ...&&;;:::::::;??                ",
"                   ....&;;;;:::::;???                ",
"                  ....&;;;;;;;;;;??                  ",
"                 ....&;;;;;;;;;;??                   ",
"                ....&;;;;;;;;;;??                    ",
"               ....&;;;;;;;;;;?                      ",
"              ....&;;;;;;;;;;?                       ",
"             ....&;;;;;;;;;;?                        ",
"            ...&&;;;;;;;;;;;                         ",
"           ..&&&;;;;;;;;;;;;                         ",
"          .&&&&;;OOO;;;;;;;;                         ",
"         .&&&&;OOOOOOO;;;;;;;                        ",
"        .&&&&----OOOOOO;;;;;;        >>.             ",
"       .&&&&------OOOOOOO;;;;;    >>>>>>>.           ",
"       &&&&--,,,,,,,OOOOOOOOOOOOOOOOOO>>>>.          ",
"      &&&&--,,,,,,,,,OOOOOOOOOOOOOOOOOO>>>..         ",
"     &&&&---,,,,,,,,,,OOOOOOOOOOOOOOOOO>>>..         ",
"    &&&&--,,,,$$$$$$$,,OOOOOOOOOOOOOOOOO>>..         ",
"   &&&&X--,,,$$$$$$$$$$$OOOOOOOOOOOOOOOO>...         ",
" &&&&&OX--,,,$$$$$$$$$$$XXXXXXXXXOOOOOOO>..          ",
"&&&&OOXX--,,,$$$$$$$$$$$XXXXXXXXXXXOOOOO...          ",
"&&OOOOXXX-,,,,$$$$$$$$$$XXXXXXXXXXXXOOO....          ",
"OOOOOXXXX--,,,$$$$$$$$$$XXXXXXXXXXXXOO....           ",
"OOOOOXXXXX--,,,$$$$$$$XXXXXXXXXXXXXXO....            ",
"OOOOOXXXXXXXXXXXXXXXXXXXXXXXXXXXXXXO....             ",
"OOOOOOXXXXXXXXXXXXXXXXXXXXXXXXXXXXO....              ",
"OOOOOOOXXXXXXXXXXXXXXXXXXXXXXXXXX.....               ",
"OOOOOOOOXXXXXXXXXXXXXXXXXXXXXXXX.....                ",
"OOOOOOOOOXXXXXXXXXXXXXXXXXXXX.....                   ",
"                                                     "};
