/* XPM */
static char * num3_xpm[] = {
"53 72 29 1",
" 	s None c None  ",
".	c #FFFFF1F1E0E0",
"X	c #FFFFBABA6666",
"o	c #FFFFC7C78484",
"O	c #FFFFF3F3E5E5",
"+	c #FFFFB0B05151",
"@	c #FFFFB5B55B5B",
"#	c #FFFFA3A33333",
"$	c #FFFF90900A0A",
"%	c #FFFFD1D19B9B",
"&	c #FFFF9E9E2828",
"*	c #FFFFDCDCB2B2",
"=	c #FFFF95951414",
"-	c #FFFFC0C07575",
";	c #FFFFD5D5A3A3",
":	c #FFFFECECD6D6",
"?	c #FFFFCBCB8C8C",
">	c #FFFFE8E8CCCC",
",	c #FFFFE3E3C1C1",
"<	c #FFFF8C8C0000",
"1	c #FFFF99991E1E",
"2	c #FFFFA7A73D3D",
"3	c #FFFFF5F5EAEA",
"4	c #FFFFE7E7CBCB",
"5	c #FFFFD5D5A2A2",
"6	c #FFFFFAFAF4F4",
"7	c #FFFFDADAADAD",
"8	c #FFFFC3C37A7A",
"9	c #FFFFE1E1BCBC",
"                                                     ",
"                        .....XXXXXooooo              ",
"                     .....XXXXXXXXXXXooooo           ",
"                    ....XXXXXXXXXXXXXXooooo          ",
"                   ...XXXXXXXXXXXXXXXXXXooooO        ",
"                  ..XXXXXXXXXXXXXXXXXXXXXooooO       ",
"                 ..XXXXXXXXXXXX++++++++XXXooooO      ",
"                ..X@@@@@XXXXX+++++++++++++XooooOO    ",
"                ..@@@@@@XXXXX++++++++####++XooooOOO  ",
"                .@@@@@@@XXXXX+++++++##$$$#++Xooo%OOOO",
"                .@@@@@@@XXXXX++++++###$$$$&++Xooo*OOO",
"                 @@@@@@@     +++++###$$$$$$&++oooo**O",
"                   @@         ++++###$$$$$$&&++ooo***",
"                               +++####$$$$$=&++Xoo***",
"                                ++####$$$$$=&&++-o%**",
"                                 +####$$$$$=&&++@o%**",
"                                 ;####======&&++@X%**",
"                                 ;####======&&++XX%**",
"                                ;;###=======&&+XXX***",
"                                ;;###======&&&+XXX***",
"                               ;;;##=======&&&XXXX***",
"                              :;;###=======&&+XX?****",
"                             :;;###========&&XX******",
"                            :;;###========&&XX*****..",
"                           :;;###=========&XX**>>....",
"                         ::;;###=========&XX*>>:.... ",
"                       :::;;###==========XX;>>:...   ",
"                     ::::;####==========X;;>>:...    ",
"                    :::;####===========X;;>>::..     ",
"                   :::#####===========X;;>>::..      ",
"                  ::#####=============;;,>>::..      ",
"                 ::X#####==<<<<<<====1;;,>>::..      ",
"                ::oX#####=<<<<<<<<===1;;,>>::..      ",
"                :oXX#####<<<<<<<<<<==1;;;,>::..      ",
"               :ooXX2####<<<<<<<<<<<=11;;,,>::.      ",
"               :ooXX22###<<<<<<<<<<<<11;;;,,::.      ",
"               :ooXX2222#<<<<<<<<<<<<=11;;,,>::      ",
"                oooXXX22222<<<<<<<<<<<11XX;,,::      ",
"                 oooXXX22222<<<<<<<<<<<11XX;,,::     ",
"                  oooXXXX2222<<<<<<<<<<<11XX;,,:3    ",
"                   ooooXXX2222<<<<<<<<<<<11XX;,,4    ",
"                    ::::XXX2222<<<<<<<<<<111XX,,,,   ",
"                      :::XXX2222<<<<<<<<<<11XXX,,,   ",
"                       :::oXX2222<<<<<<<<<$1XXXo,,   ",
"                        .::XXX222<<<<<<<<<<1XXXX5,.  ",
"                         .::XXX22&<<<<<<<<<1XXXX-,.  ",
"                          .::XX222$<<<<<<<<$XXXX-o.  ",
"                           .::XX22&$<<<<<<$$XXXXoo.  ",
"                            .:XXX2&$$<<<<$$$XXXXoo   ",
"                            ..:XX2&&$$$$$$$$XXXooo   ",
"                            ..:XX2&&$$$$$$$&XXXooo   ",
"                             ..XXX&&&$$$$$$#XXooo    ",
"        333                  ..XXX&&&&$$$$&#XXoo,    ",
"       333333                ..XXX&&&&&&&&&#Xooo     ",
"      33333333               ..XXX&&&&&&&&##Xoo      ",
"    63333333333              ..XXX&&&&&&&&##oo7      ",
"   3333333333333            ..,XX&&&&&&&&##Xoo       ",
"   33333@@@333333           ..,XX&&&&&&&&##oo7       ",
"   3333@@@@@@33333          .,XXX&&&&&&&###o7        ",
"  6333@@@@@@@@@333         .,,XX&&&&&&&&##o77        ",
"  63*@@@@@@@@@@@333       .,,XXX&&&&&&&##o77         ",
"  688@@@@@++++@@@3333    .,,XXXX&&&&&&##X77>         ",
"  688@@@@++++++++@,33333,,,XXXXX&&&&&##X77>          ",
"   888@@@<<<<#+++++@,,,,,,XXXXXXX&&###X777>          ",
"   888@@+<<<<<##+++++X,,,XXXXXXXXXXXXX77>>           ",
"   8888@<<<<<<<####++++XXXXXXXXXXXXXX77>>            ",
"    9888<<<<<<<####++++XXXXXXXXXXXXX77>>             ",
"      888<<<<<#####++++XXXXXXXXXXXX7>>>              ",
"       888<<<<#####++++XXXXXXXXXX7>>>>               ",
"        888+#######++++XXXXXXXX,>>>>>                ",
"         88888+++++++XXXXXX,,>>>>>                   ",
"                                                     "};
