/* XPM */
static char * num4_xpm[] = {
"53 72 28 1",
" 	s None c None",
".	c #FFFFF5F5EAEA",
"X	c #FFFFE8E8CCCC",
"o	c #FFFFDCDCB2B2",
"O	c #FFFFD1D19999",
"+	c #FFFFC5C57F7F",
"@	c #FFFFB5B55B5B",
"#	c #FFFFB0B05151",
"$	c #FFFFBFBF7272",
"%	c #FFFFBABA6666",
"&	c #FFFFA7A73D3D",
"*	c #FFFF8C8C0000",
"=	c #FFFFF3F3E5E5",
"-	c #FFFF95951414",
";	c #FFFFD4D4A0A0",
":	c #FFFFEBEBD3D3",
"?	c #FFFF99991E1E",
">	c #FFFFE3E3C1C1",
",	c #FFFFCECE9393",
"<	c #FFFFF9F9F2F2",
"1	c #FFFFA3A33333",
"2	c #FFFFF1F1E0E0",
"3	c #FFFFC3C37A7A",
"4	c #FFFFC7C78484",
"5	c #FFFFC4C47C7C",
"6	c #FFFF9E9E2828",
"7	c #FFFFFAFAF4F4",
"8	c #FFFFFCFCF9F9",
"                                            .....XXXX",
"                                           ...XXXXXXX",
"                                          ...XXXoOoXX",
"                                         ..XOOOOOOOOO",
"                                        ..OOOOOOOOOOO",
"                                       ..OOO+++++++++",
"                                      ..O+@@@++++++++",
"                                      .O@@####+++++++",
"                                     .@@@######++++++",
"                                    .@@@########$++++",
"                                   .@@##########%%+++",
"                                  .@@###########%%+++",
"                                 .@@@###########%%+++",
"                                .@@###&***#####%%%$++",
"                              ..@@###&*****####%%%$+=",
"                            ...@@@##&******###%%%%$+=",
"                          ....@@@##&-*******##%%%%$==",
"                         ....@@@##&--*******#%%%%%;==",
"                        ....@@@##&&--*******#%%%%%:==",
"                       ....@@@##&&&--******-#%%%%%:= ",
"                      ....@@@###&&----***--?%%%%%>:= ",
"                     ....@@@@##&&&---------?%%%%,>:  ",
"                    ....@@@@###&&&---------?%%%%>><  ",
"                    ...@@@@@##&&&&--------??%%%>>>   ",
"                   ...@@@@@@##&&&&--------??%%%>>>   ",
"                   ..@@@@@@@@#&&&&-------??1%%>>>    ",
"                  ..@@@@@@@@@@#&&&-------??1%%>>2    ",
"                  .@@@@@#@@@@@@&&&------???1%>>>     ",
"                 .@@@@####@@@@@#&&------??11%>>      ",
"                .@@@@@###@@%%%@@&&------??11%>>      ",
"               .@@@@@####@%%%%%%&------??11@>>       ",
"              .@@@@@@@#@@%%%%%%%&------??11@>>       ",
"             .@@@@@@@@@@%%%%%%%%&------?111@>        ",
"            .@@@@@@@@@@3333%%%%%-------?11@@>        ",
"          ..@@@@@@@@@@OOOO33%%%%-***---?11@@         ",
"         ..3@@@@@@@@@OOOOOOO%%%-******-11@@>         ",
"        ..3@@@@@@@@@OOOOOOOOO%%********11@@          ",
"      ...33@@###@@@OOOOOOOOOO%*********1@@@          ",
"     ...33@#####@@OOXOOOOOOOO%*********1@@           ",
"   ....33@######@@XXXOOOOOOOO&*********1@@           ",
"  ....o33########%XXXOOOOOOO%**********@@4           ",
"....oo33#########%OOOOOOOOO%&**********@@4           ",
"..ooo333#########%%OOOOOOO%%&**********@44           ",
"oooo533##666#####%%OOOOOO%%&&**********@44           ",
"ooo+333#****6####%%%OOOO%%&&&**********@44           ",
"o++333#*******6###%%%%%%%&&&***********144           ",
"+++333**********###%%%%%&&&************144           ",
"+++33#***********######&&&*************1444          ",
"+++33*************###&&&&**************1144          ",
"+++33**************&&&&&***************1144          ",
"++++5*********************************11144          ",
"++++++********************************1144X          ",
"+++++++*******************************114XX          ",
"++++++++*****************************114XX           ",
"+++++++++****************************11XXX           ",
"              XXXX3*****************114XX            ",
"               XXXX3****************11XXX            ",
"                XXXX3**************11XXX             ",
"                 XXX33*************1XXXX             ",
"                  XXX33************XXXXX             ",
"                   XX33***********XXXXX              ",
"                   XX33***********XXXXX              ",
"                   X333***********XXXXX              ",
"                   X33************XXXXX              ",
"                   X33************XXXXX              ",
"                   X33************XXXXX              ",
"                   X33************XXXXX              ",
"                   X33***********XXXXX7              ",
"                   XX33*********XXXXXX7              ",
"                   XXXX3******XXXXXXX77              ",
"                   XXXXX3****XXXXXXX777              ",
"                       =XXXXXX27778                  "};
