/* XPM */
static char * pointh_xpm[] = {
"38 21 6 1",
"o 	s None	c None ",
".	c yellow        ",
"s	c sienna        ",
"l	c gray ",
"b	c black ",
"w	c white ",
"wwwwwwwwwwwwwwwwwwwwwwwwwwwwwwwwwwwwwo",
"wllllllllllllllllllllllllllllllllllllb",
"wlooooooo..sooooooooooooooooooooooollb",
"wlooooo...sooooooooo..............sllb",
"wlo.....sooo......soooooooooooo..sollb",
"wlooooo.sooo.sooo.soooooooooo..sooollb",
"wlooooo.sooo.sooo.sooooooooo..soooollb",
"wlo........s.sooo.sooooooo..soooooollb",
"wlooooo.sooo.sooo.sooooooo.sooooooollb",
"wloooo...soo.sooo.sooooooo.sooooooollb",
"wloooo..s.so.sooo.sooooooo.sooooooollb",
"wlooo.s.so.s.sooo.sooooooo.sooooooollb",
"wloo..s.sooo.sooo.sooooooo.sooooooollb",
"wlo..so.sooo.sooo.sooooooo.sooooooollb",
"wlooooo.sooo.sooo.sooooooo.sooooooollb",
"wlooooo.sooo......sooooooo.sooooooollb",
"wlooooo.sooooooooooooooooo.sooooooollb",
"wlooooo.sooooooooooooooo...sooooooollb",
"wllllllllllllllllllllllllllllllllllllb",
"wllllllllllllllllllllllllllllllllllllb",
"obbbbbbbbbbbbbbbbbbbbbbbbbbbbbbbbbbbbb",
};
