/* XPM */
static char * presskey_xpm[] = {
"36 46 4 1",
" 	c #000000000000",
".	c #B2B2B2B2B2B2",
"X	c white        ",
"o	c #EEEE00000000",
"                                 ...",
" XXXXXXXXXXXXXXXXXXXXXXXXXXXXXXX ...",
" XXXXXXXXXXXXXXXXXXXXXXXXXXXXXXX ...",
" XXXXXXXXXXXXXXXXXXXXXXXXXXXXXXX ...",
" XXXXXXXXXXXXXXXXXXXXXXXXXXXXXXX    ",
" XXXXXXXXXXXXXXXXXXXXXXXXXXXXXXX    ",
" XXXXXXXXXXXXXXXXXXXXXXXXXXXXXXX    ",
" XXXXXXXXXXXXXXXXXXXXXXXXXXXXXXX    ",
" XXXXXXXXXXXXXXXXXXXXXXXXXXXXXXX    ",
" XXXXXXXXXXXXXXXXXXXXXXXXXXXXXXX    ",
" XXXXXXXXXXXXXXXXXXXXXX XXXXXXXX    ",
" XXXXXXX                XXXXXXXX    ",
" XXXXXX                 XXXXXXXX    ",
" XXXXXXXXXXXXXXXXXXXXXXXXXXXXXXX    ",
" XXXXXXXXXXXXXXXXXXXXXXXXXXXXXXX    ",
" XXXXXXXXXXXXXXXXXXXXXXXXXXXXXXX    ",
" XXXXXXXXXXXXXXXXXXXXXXXXXXXXXXX    ",
" XXXXXXXXXXXXXXXXXXXXXXXXXXXXXXX    ",
" XXXXXXXXXXXXXXXXXXXXXXXXXXXXXXX    ",
" XXXXXXXXXXXXoXXXXXoXXXXXXXXXXXX    ",
" XXXXXXXXXXXoooXXXooXXXXXXXXXXXX    ",
" XXXXXXXXXXXXooXXXooXXXXXXXXXXXX    ",
" XXXXXXXXXXXXooXXXooXoXXXXXXXXXX    ",
" XXXXXXXXXXoooooooooooXXXXXXXXXX    ",
" XXXXXXXXXooooooooooooXXXXXXXXXX    ",
" XXXXXXXXXXXXXXXoXXoXXXXXXXXXXXX    ",
" XXXXXXXXXXXXoooooooXXXXXXXXXXXX    ",
" XXXXXXXXXXXooooooooXXXXXXXXXXXX    ",
" XXXXXXXXXXXooooooooXXXXXXXXXXXX    ",
" XXXXXXXXXXXooooooooXXXXXXXXXXXX    ",
" XXXXXXXXXXXooooooooXXXXoXXXXXXX    ",
" XXXXXXXXXXXoooooooooooooXXXXXXX    ",
" XXXXXXXXXXXXXoooooooooooXXXXXXX    ",
" XXXXXXXXoooooooooooXXXooXXXXXXX    ",
" XXXXXXXooooooooooooXXXooXXXXXXX    ",
" XXXXXXXXooXXoooooooXXXooXXXXXXX    ",
" XXXXXXXXooXoooooXXooXXooXXXXXXX    ",
" XXXXXXXXooXXXXXXXXoooXooXXXXXXX    ",
" XXXXXXXXooXXXXXXXXXoooooXXXXXXX    ",
" XXXXXXXXXXXXXXXXXXXXooooXXXXXXX    ",
" XXXXXXXXXXXXXXXXXXXXXXXXXXXXXXX    ",
" XXXXXXXXXXXXXXXXXXXXXXXXXXXXXXX    ",
" XXXXXXXXXXXXXXXXXXXXXXXXXXXXXXX    ",
"                                    ",
"....                                ",
"....                                "};
