/* XPM */
static char *rchonbo_xpm [] = {
"82 17 2 1",
"X 	s None	c None",
"o	c gold",
"XXXXXXXXXXXXXXXXXXXXXXXXXXXXXXXXXXXXXXXXXXXXXXXXXXXXXXXXXXXXXXXXXXXXXXXXXXXXXXXXXX",
"XXXXXXXXXXXXXXXXXXXXXXXXXXXXXXXXXXXXXXXXXXXXXXXXXXXXXXXXXXXXXXoXoXXXXXXXXXXXXXXXXX",
"XXXXXXXXXXXXXooXXXXXXXXXXXXXXXXXXXXXXXXXXXXXXXXXXXXXXXXXXoXXXXoXoXXXXXXXXXXXXXXXXX",
"XXXXXXXXXXooooXXXXXXXXXXXXXXXXXXXXXXooXXXXXXXXXXXXXXXXXXXoXXXXXXXXXXXXXXXXXXXXXXXX",
"XXXXXooooooXXXXXXXXXXXXXXXXXXXXXXXXXXoooXXXXXXXXXXXXXXXXXoXXXXXXXXXXXXXXXXXXXXXXXX",
"XXXXXXXXXXoXXXXXXXXXXXXXXXXXXXXXXXXXXXXooXXXXXXXXXXooooooooooooooXXXXXXXXXXXXXXXXX",
"XXXXXXXXXXoXXXXXXXXXXXXXXXXXXXXXXXXXXXXXXXXXXXXXoXXXXXXXXoXXXXXXXXXXXXXXXXXXXXXXXX",
"XXXXXXXXXXoXXXXXXXXXXXooooooooXXXXXXXXXXXXXXXXXooXXXXXXXXoXXXXXXXXXXXXXXXXXXXXXXXX",
"XXXooooooooooooooXXXXXXXXXXXXoXXXXXXXXXXXXXXXXooXXXXXXoXXoXXXoXXXXXXXXXXXXXXXXXXXX",
"XXXXXXXXXXoXXXXXXXXXXXXXXXXXXoXXXXXXXXXXXXXXXooXXXXXXXoXXoXXXooXXXXXXXXXXXXXXXXXXX",
"XXXXXXXXXXoXXXXXXXXXXXXXXXXXXoXXXXXXXXXXXXXXooXXXXXXXooXXoXXXXooXXXXXXXXXXXXXXXXXX",
"XXXXXXXXXooXXXXXXXXXXXooooooooXXXXXXXXXXXXXooXXXXXXXXoXXXoXXXXXoXXXXXXXXXXXXXXXXXX",
"XXXXXXXXXoXXXXXXXXXXXXXXXXXXXoXXXXXXXXXXXoooXXXXXXXXooXXXoXXXXXooXXXXXXXXXXXXXXXXX",
"XXXXXXXXooXXXXXXXXXXXXXXXXXXXoXXXXXXXXXoooXXXXXXXXXooXXXXoXXXXXXoXXXXXXXXXXXXXXXXX",
"XXXXXXXooXXXXXXXXXXXXXXXXXXXXoXXXXXXooooXXXXXXXXXXXXXXXXXoXXXXXXXXXXXXXXXXXXXXXXXX",
"XXXXXoooXXXXXXXXXXXXXXooooooooXXXXXXXXXXXXXXXXXXXXXXXXXoooXXXXXXXXXXXXXXXXXXXXXXXX",
"XXXXXXXXXXXXXXXXXXXXXXXXXXXXXXXXXXXXXXXXXXXXXXXXXXXXXXXXXXXXXXXXXXXXXXXXXXXXXXXXXX",
};
