/* XPM */
static char *reststr_xpm[] = {
/* width height num_colors chars_per_pixel */
"    24    24        3            1",
/* colors */
". c #dddddd",
"# c #808080",
"a s None c None",
/* pixels */
"aaa.#a.#aa.aaaaaaaaaaaaa",
"aaa.#a.#aa.#aaaaaaaaaaaa",
"aaa.#a.#aa.#aaaaaaaaaaaa",
"aa.#..........aaaaaaaaaa",
"a..aa#.###.##aaaaaaaaaaa",
"...aaa.aaa.aaaaaaaaaaaaa",
".#.aaa.aaa.aaaaaaaaaaaaa",
"#a.a..........aaaaaaaaaa",
"aa..a########aaaaaaaaaaa",
"aa.aaa.aaa.aaaaaaaaaaaaa",
"aa.aa.#aaa..aaaaaaaaaaaa",
"aa.a..aaaa#..aaaaaaaa..a",
"aa.a.#aaaaa.....aaaa..#a",
"aaaaaaaaaaaaa###aa..##aa",
"aaaaaaaaaaa.......#.#aaa",
"aaaaaaaaaaaa....aaa.#aaa",
"aaaaaaaaaaaaa###aaa.....",
"aaaaaaaaaaa.....#...####",
"aaaaaaaaaaaa###a.##.#aaa",
"aaaaaaaaaaa.....##a.#aaa",
"aaaaaaaaaaaa.##.#aa.#aaa",
"aaaaaaaaaaaa.aa.#aa.#aaa",
"aaaaaaaaaaaa....aaa.#aa.",
"aaaaaaaaaaaa.###aaaa...."
};
