/* XPM */
static char *rron_xpm [] = {
"82 17 2 1",
"X 	s None	c None",
"o	c gold",
"XXXXXXXXXXXXXXXXXXXXXXXXXXXXXXXXXXXXXXXXXXXXXXXXXXXXXXXXXXXXXXXXXXXXXXXXXXXXXXXXXX",
"XXXXXXXXXXXXXXXXXXXXXXXXXXXXXXXXXXXXXXXXoXXXXXXXXXXXXXXoXXXXXXXoXoXXXXXXXXXXXXXXXX",
"XXXXXXXXXXXXXXXXXXXXXXXXXXXXXXXXXXXXXXXXoXXXXXXXXXXXXXXoXXXXXXXoXoXXXXoXXXXXXXoXXX",
"XXXXXXXXXXXXXXXXXXXXooXXXXXXXXXXXXXXoooooooooooXXXXXXXXoXXXXXoXXXXXXXXoXXXXXXXoXXX",
"XXXXXooooooooooXXXXXXoooXXXXXXXXXXXXXXXoXXXXXXXXXXXXXXXoXXXXXooXXXXXXXoXXXXXXXoXXX",
"XXXXXoXXXXXXXXoXXXXXXXXooXXXXXXXXXXXXXXoXXXoXXXXXXXooooooooXXXooXXXXXXoXXXXXXXoXXX",
"XXXXXoXXXXXXXXoXXXXXXXXXXXXXXXXXoXXXXXXoooooooXXXXXXXXXoXXXoXXXoXXXXXXoXXXXXXXoXXX",
"XXXXXoXXXXXXXXoXXXXXXXXXXXXXXXXooXXXXoooXXXoXoooXXXXXXXoXXXoXXXooXXXXXoXXXXXXXoXXX",
"XXXXXoXXXXXXXXoXXXXXXXXXXXXXXXooXXXXooXoXXXoXXXoXXXXXXooXXXoXXXXoXXXXXoXoXXXXXoXXX",
"XXXXXoXXXXXXXXoXXXXXXXXXXXXXXooXXXXXoXXoXXXoXXXooXXXXXoXXXXoXXXXoXXXXXooXXXXXXoXXX",
"XXXXXoXXXXXXXXoXXXXXXXXXXXXXooXXXXXooXXoXXoXXXXXoXXXXXoXXXXoXXXXXXXXXXoXXXXXXXoXXX",
"XXXXXoXXXXXXXXoXXXXXXXXXXXXooXXXXXXoXXXoXXoXXXXXoXXXXooXXXXoXXXXXXXXXXXXXXXXXooXXX",
"XXXXXoXXXXXXXXoXXXXXXXXXXoooXXXXXXXoXXXoXoXXXXXooXXXXoXXXXXoXXXXXXXXXXXXXXXXXoXXXX",
"XXXXXooooooooooXXXXXXXXoooXXXXXXXXXoXXXooXXXXXXoXXXXooXXXXooXXXXXXXXXXXXXXXXooXXXX",
"XXXXXXXXXXXXXXXXXXXXooooXXXXXXXXXXXXoooXXXXXXoooXXXooXXXXXoXXXXXXXXXXXXXXXXooXXXXX",
"XXXXXXXXXXXXXXXXXXXXXXXXXXXXXXXXXXXXXXXXXXXoooXXXXXXXXXXoooXXXXXXXXXXXXXXoooXXXXXX",
"XXXXXXXXXXXXXXXXXXXXXXXXXXXXXXXXXXXXXXXXXXXXXXXXXXXXXXXXXXXXXXXXXXXXXXXXXXXXXXXXXX",
};
