/* XPM */
static char *rtumo_xpm [] = {
"82 17 2 1",
"X 	s None	c None",
"o	c gold",
"XXXXXXXXXXXXXXXXXXXXXXXXXXXXXXXXXXXXXXXXXXXXXXXXXXXXXXXXXXXXXXXXXXXXXXXXXXXXXXXXXX",
"XXXXXXXXXXXXXXXXXXXXXXXXXXXXXXXXXXXXXXXXoXXXXXXXXXXXXXXoXXXXXXXoXoXXXXXXXXXXXXXXXX",
"XXXXXXXXXXXXXXXXXXXXXXXXXXXXXXXXXXXXXXXXoXXXXXXXXXXXXXXoXXXXXXXoXoXXXXoXXXXXXXoXXX",
"XXXXXXXoXXXXXXXXXXXXoooooooooooXXXXXoooooooooooXXXXXXXXoXXXXXoXXXXXXXXoXXXXXXXoXXX",
"XXXoXXXooXXXXXXXoXXXXXXXoXXXXXXXXXXXXXXoXXXXXXXXXXXXXXXoXXXXXooXXXXXXXoXXXXXXXoXXX",
"XXXooXXXoXXXXXXXoXXXXXXXoXXXXXXXXXXXXXXoXXXoXXXXXXXooooooooXXXooXXXXXXoXXXXXXXoXXX",
"XXXXoXXXooXXXXXooXXXXXXXoXXXXXXXXXXXXXXoooooooXXXXXXXXXoXXXoXXXoXXXXXXoXXXXXXXoXXX",
"XXXXooXXXoXXXXXoXXXXXXXXoXXXXXXXXXXXXoooXXXoXoooXXXXXXXoXXXoXXXooXXXXXoXXXXXXXoXXX",
"XXXXXoXXXXXXXXooXXXoooooooooooooXXXXooXoXXXoXXXoXXXXXXooXXXoXXXXoXXXXXoXoXXXXXoXXX",
"XXXXXXXXXXXXXXoXXXXXXXXXoXXXXXXXXXXXoXXoXXXoXXXooXXXXXoXXXXoXXXXoXXXXXooXXXXXXoXXX",
"XXXXXXXXXXXXXooXXXXXXXXXoXXXXXXXXXXooXXoXXoXXXXXoXXXXXoXXXXoXXXXXXXXXXoXXXXXXXoXXX",
"XXXXXXXXXXXXooXXXXXXXXXXoXXXXXXXXXXoXXXoXXoXXXXXoXXXXooXXXXoXXXXXXXXXXXXXXXXXooXXX",
"XXXXXXXXXXXooXXXXXXXXXXXoXXXXXXXXXXoXXXoXoXXXXXooXXXXoXXXXXoXXXXXXXXXXXXXXXXXoXXXX",
"XXXXXXXXXXooXXXXXXXXXXXXooXXXXXXXXXoXXXooXXXXXXoXXXXooXXXXooXXXXXXXXXXXXXXXXooXXXX",
"XXXXXXXXoooXXXXXXXXXXXXXXoooooooXXXXoooXXXXXXoooXXXooXXXXXoXXXXXXXXXXXXXXXXooXXXXX",
"XXXXXXoooXXXXXXXXXXXXXXXXXXXXXXXXXXXXXXXXXXoooXXXXXXXXXXoooXXXXXXXXXXXXXXoooXXXXXX",
"XXXXXXXXXXXXXXXXXXXXXXXXXXXXXXXXXXXXXXXXXXXXXXXXXXXXXXXXXXXXXXXXXXXXXXXXXXXXXXXXXX",
};
