/* XPM */
static char * tting_xpm[] = {
"68 18 3 1",
".	c DarkOrange",
"X	s None c None",
"o	c yellow",
"XXXXXXXXXXXXXXXXXXXXXXXXXXXXXXXXXXXXXXXXXXXXXXXXXXXXXXXXXXXXXXXXXXXX",
"XXXXo.XXXXXXo.XXXXXXXo.XXXXXXo.XXXXXXXXXXo.XXXXXXXXXXXXXXXXXXXXXXXXX",
"XXXXo.XXXXXXo.XXXXXXoo.XXXXXXo.XXXXXXXXXXo.XXXXXXXXXXXXXXXXXXXXXXXXX",
"XXXXo.XXooooooooo.Xoo.XXXooooooooo.XXXXXXo.XXXXXXXXXXXXXXXXXXXXXXXXX",
"XXXXo.XXXo.XXXXo.Xoo.XXo.XXXXo.XXXXXXXXXXo.XXXXXXXXXXXXXXXXXXXXXXXXX",
"XXooooo.Xoo.XXoo.XXoo.oo.XXXXo.XXXXoooooooooooooo.XXXXXXXXXXXXXXXXXX",
"XXXXo.XXXXo.XXo.XXXXXoo.XXooooooo.Xo.XXXXo.XXXXXo.XXXXXXXXXXXXXXXXXX",
"XXXXo.Xooooooooooo.Xoo.XXXXXXXXXXXXo.XXXXo.XXXXXo.XXXXXXXXXXXXXXXXXX",
"XXXXo.XXXXXo.XXXXXXoo.Xo.ooooooooo.o.XXXXo.XXXXXo.XXXXXXXXXXXXXXXXXX",
"XXXXooo.XXXo.XXXXXoooooo.o.XXXXXXo.o.XXXXo.XXXXXo.XXXXXXXXXXXXXXXXXX",
"XXooo.Xooooooooooo.XXo.o.o.o.Xo.Xo.o.XXXXo.XXXXXo.XXXXXXXXXXXXXXXXXX",
"XXXXo.XXXXo.XXXo.XXXXo.XXXXo.Xo.XXXoooooooooooooo.XXXXXXXXXXXXXXXXXX",
"XXXXo.XXXo.XXXoo.XXo.o.o.XXo.Xo.XXXXXXXXXo.XXXXXXXXXXXXXXXXXXXXXXXXX",
"XXXXo.XXoooo.oo.XXXo.o.oo.Xo.Xo.XXXXXXXXXo.XXXXXXXXXXXXXXXXXXXXXXXXX",
"XXXXo.XXXXXooo.XXXoo.o.Xo.oo.Xo.Xo.XXXXXXo.XXXXXXXXXXXXXXXXXXXXXXXXX",
"XXXXo.XXXooo.Xooo.o.Xo.XXXo.XXo.Xo.XXXXXXo.XXXXXXXXXXXXXXXXXXXXXXXXX",
"XXXoo.Xooo.XXXXXoo.XXo.XXoo.XXXooo.XXXXXXo.XXXXXXXXXXXXXXXXXXXXXXXXX",
"XXXXXXXXXXXXXXXXXXXXXXXXXXXXXXXXXXXXXXXXXXXXXXXXXXXXXXXXXXXXXXXXXXXX",
};

/* XPM */
/*
static char * tting_xpm[] = {
"24 24 2 1",
" 	s None c None",
".	c #FFFFFFFF0000",
"          .             ",
"          .         .   ",
"          .         .   ",
"          .    .    .   ",
"          .    ..   .   ",
"          .    . .  .   ",
"   ...    .    . ....   ",
"   ....   .    .. ...   ",
"   ....   .    ..  ..   ",
"   ... .  .    ..   .   ",
"   ...  . .    ..       ",
"   ...  . .    ..       ",
"   ...   ..    ..       ",
"   ...    .    ..       ",
"   ...    .    ..       ",
"   ...                  ",
"   ...                  ",
"   ...                  ",
"   ...                  ",
"   ...                  ",
"   ...                  ",
"   ...                  ",
"   ...                  ",
"    .                   "};
*/
