/* XPM */
static char * uradorastr_xpm[] = {
"24 24 3 1",
" 	s None	c None",
".	c DarkSeaGreen",
"x	c MediumSeaGreen",
"          ..x           ",
"          ..x           ",
"          ..x           ",
"  ....................x ",
"  ..xxxxxxxxxxxxxxx...x ",
"  ..x             ...x  ",
"  xxx           ...x    ",
"               ...x     ",
"              ...x      ",
"            ....x       ",
"          ....x         ",
"         ...x           ",
"                        ",
"  ....................x ",
"  xxxxxxxxxxxxxxxxxxxxx ",
"                        ",
"  ...................x  ",
"  xxxxxxxxxxxxxxxx..x   ",
"                ...x    ",
"               ...x     ",
"              ...x      ",
"             ...x       ",
"           ...x         ",
"          ...x          "};
