/* XPM */
static char * attrtie_xpm[] = {
"25 2 3 1",
" 	s None	c None ",
"w  c white        ",
".  c blue ",
".w...w...w...w...w...w...",
"...w...w...w...w...w...w."};
