/* XPM */
static char * attrtg_xpm[] = {
"25 2 3 1",
" 	s None	c None",
".	c black  ",
"x	c red  ",
"  xxx..x                 ",
"  xxx..x                 "};
