/* XPM */
static char * attrT_xpm[] = {
"25 2 3 1",
" 	s None	c None",
".	c red        ",
"d	c DeepPink   ",
"dddddd..ddddddddddddddddd",
"dddddd..ddddddddddddddddd"};
