/* XPM */
static char * attrkan_xpm[] = {
"25 2 3 1",
" 	s None	c None ",
"w  c white        ",
".  c DarkOrange   ",
"..... ..... ..... .....  ",
"..... ..... ..... .....  "};
