/* XPM */
static char * tiny0_xpm[] = {
"5 8 3 1",
" 	s None	c None",
".	c black  ",
"x	c yellow  ",
"     ",
" xxx ",
"x   x",
"x   x",
"x   x",
"x   x",
"x   x",
" xxx "};
