/* XPM */
static char * tiny3_xpm[] = {
"5 8 3 1",
" 	s None	c None",
".	c black  ",
"x	c yellow  ",
"     ",
"xxx  ",
"   x ",
"   x ",
" xx  ",
"   x ",
"   x ",
"xxx  "};
