/* XPM */
static char * tinyS_xpm[] = {
"5 8 3 1",
" 	s None	c None",
".	c black  ",
"x	c white  ",
"     ",
" xx  ",
"x  x ",
"x    ",
" xx  ",
"   x ",
"x  x ",
" xx  "};
