/* XPM */
static char * attrkan_xpm[] = {
"40 2 3 1",
" 	s None	c None ",
"w  c white        ",
".  c DarkOrange   ",
"..... ..... ..... .....                 ",
"..... ..... ..... .....                 "};
