/* XPM */
static char * attrpon_xpm[] = {
"40 2 3 1",
" 	s None	c None ",
".  c cornsilk     ",
"w  c DarkOrange   ",
"  ...... ...... ......                  ",
"  ...... ...... ......                  "};
