/* XPM */
static char * attrT_xpm[] = {
"40 2 3 1",
" 	s None	c None",
".	c red        ",
"d	c DeepPink   ",
" ........ddddddddddddddddddddddddddddddd",
" ........ddddddddddddddddddddddddddddddd"};
