/* XPM */
static char * tinyW_xpm[] = {
"8 8 3 1",
" 	s None	c None",
".	c black  ",
"x	c white  ",
"        ",
" x x x  ",
" x x x  ",
" x x x  ",
" x x x  ",
" x x x  ",
" x x x  ",
"  x x   "};
