/* XPM */
static char * tinyE_xpm[] = {
"8 8 3 1",
" 	s None	c None",
".	c black  ",
"x	c white  ",
"        ",
" xxxx   ",
" x      ",
" x      ",
" xxx    ",
" x      ",
" x      ",
" xxxx   "};
